<svg width="64" height="52" viewBox="0 0 64 52" fill="none" xmlns="http://www.w3.org/2000/svg">
<path d="M63.5 26C63.5 39.9912 49.499 51.5 32 51.5C14.501 51.5 0.5 39.9912 0.5 26C0.5 12.0087 14.501 0.5 32 0.5C49.499 0.5 63.5 12.0087 63.5 26Z" fill="#3579DC" stroke="#FFD089"/>
<g filter="url(#filter0_i_183_1465)">
<path d="M18.51 10.57C18.35 9.78 17.7 8.76 16.03 8.76C14.71 8.76 13.62 9.74 13.62 10.93C13.62 11.99 14.34 12.7 15.42 12.92L16.42 13.13C17.03 13.26 17.37 13.63 17.37 14.09C17.37 14.64 16.93 15.07 16.08 15.07C15.06 15.07 14.53 14.39 14.46 13.65L13.34 13.97C13.45 14.99 14.28 16.15 16.08 16.15C17.7 16.15 18.59 15.1 18.59 14C18.59 13 17.92 12.21 16.67 11.96L15.65 11.75C15.1 11.63 14.82 11.29 14.82 10.84C14.82 10.3 15.32 9.82 16.04 9.82C16.99 9.82 17.36 10.47 17.43 10.91L18.51 10.57ZM20.6617 17.9V15.45C20.9117 15.82 21.4417 16.12 22.1417 16.12C23.5417 16.12 24.4317 15.02 24.4317 13.56C24.4317 12.12 23.6217 11.02 22.1817 11.02C21.4317 11.02 20.8717 11.37 20.6317 11.79V11.13H19.5117V17.9H20.6617ZM23.2717 13.56C23.2717 14.49 22.7317 15.09 21.9617 15.09C21.2017 15.09 20.6517 14.49 20.6517 13.56C20.6517 12.65 21.2017 12.05 21.9617 12.05C22.7417 12.05 23.2717 12.65 23.2717 13.56ZM27.6869 15.11C26.9769 15.11 26.3269 14.57 26.3269 13.56C26.3269 12.55 26.9769 12.03 27.6869 12.03C28.4069 12.03 29.0469 12.55 29.0469 13.56C29.0469 14.58 28.4069 15.11 27.6869 15.11ZM27.6869 10.98C26.2369 10.98 25.1669 12.07 25.1669 13.56C25.1669 15.06 26.2369 16.15 27.6869 16.15C29.1469 16.15 30.2169 15.06 30.2169 13.56C30.2169 12.07 29.1469 10.98 27.6869 10.98ZM34.1879 11.1C34.1379 11.09 34.0179 11.07 33.8779 11.07C33.2379 11.07 32.6979 11.38 32.4679 11.91V11.13H31.3379V16H32.4979V13.68C32.4979 12.77 32.9079 12.25 33.8079 12.25C33.9279 12.25 34.0579 12.26 34.1879 12.28V11.1ZM36.8411 9.64H35.7911V10.37C35.7911 10.8 35.5611 11.13 35.0411 11.13H34.7911V12.16H35.6911V14.61C35.6911 15.52 36.2511 16.06 37.1511 16.06C37.5711 16.06 37.7911 15.98 37.8611 15.95V14.99C37.8111 15 37.6211 15.03 37.4611 15.03C37.0311 15.03 36.8411 14.85 36.8411 14.42V12.16H37.8511V11.13H36.8411V9.64ZM40.1151 13.19C40.1151 12.55 40.4651 12.04 41.1251 12.04C41.8551 12.04 42.1251 12.52 42.1251 13.12V16H43.2851V12.92C43.2851 11.85 42.7151 10.99 41.5251 10.99C40.9851 10.99 40.4051 11.22 40.0851 11.78V11.13H38.9551V16H40.1151V13.19ZM45.5073 13.03C45.5473 12.51 45.9673 11.95 46.6973 11.95C47.4973 11.95 47.8773 12.46 47.8973 13.03H45.5073ZM48.0273 14.3C47.8673 14.78 47.5073 15.15 46.8073 15.15C46.0873 15.15 45.5073 14.62 45.4773 13.88H49.0373C49.0473 13.86 49.0673 13.7 49.0673 13.51C49.0673 11.97 48.1873 10.98 46.6873 10.98C45.4573 10.98 44.3173 12 44.3173 13.54C44.3173 15.19 45.4873 16.15 46.8073 16.15C47.9773 16.15 48.7473 15.46 49.0073 14.61L48.0273 14.3ZM53.0258 11.1C52.9758 11.09 52.8558 11.07 52.7158 11.07C52.0758 11.07 51.5358 11.38 51.3058 11.91V11.13H50.1758V16H51.3358V13.68C51.3358 12.77 51.7458 12.25 52.6458 12.25C52.7658 12.25 52.8958 12.26 53.0258 12.28V11.1Z" fill="#FFD089"/>
</g>
<path d="M59.7305 25.9751C59.6192 25.7509 59.3363 25.656 59.1002 25.7601C59.0114 25.8001 50.2174 29.7175 48.0344 30.798C46.2756 31.668 44.0527 33.0332 43.1696 33.5856C43.1175 33.4699 43.0672 33.355 43.0037 33.2349C42.4818 32.2461 41.8054 31.296 40.9949 30.4101C39.7445 29.0437 38.4045 27.7005 36.768 26.7438C35.8543 26.2097 34.8454 25.8106 33.763 25.7585C32.6417 25.7045 31.659 26.2333 30.7407 26.789C29.6803 27.4308 28.1554 28.6454 26.7861 28.3396C26.1702 28.2019 26.1212 27.7231 26.3678 27.2538C27.9151 24.3121 31.357 22.3724 34.8437 22.647C37.0885 22.8208 42.1064 24.4434 42.1572 24.4599C42.2998 24.5059 42.4597 24.4843 42.5849 24.4018C42.6005 24.3914 44.1799 23.3369 46.7108 21.9665C49.2953 20.5665 59.1161 15.1858 59.7106 14.8679C60.3049 14.5504 59.9026 13.7269 59.2369 14.0912C58.5706 14.4555 48.8232 19.7894 46.2403 21.1882C44.1592 22.3147 42.7401 23.2127 42.2366 23.5391C41.205 23.2112 37.0271 21.9173 34.9213 21.7535C33.9747 21.681 32.9624 21.7771 31.9807 21.9989C30.9782 21.7735 29.9774 21.6866 29.0777 21.7519C26.9682 21.92 22.792 23.2124 21.7603 23.5394C21.2565 23.2123 19.8327 22.3116 17.7528 21.1845C15.1653 19.7825 5.32589 14.399 4.75414 14.096C4.18238 13.7929 3.6599 14.5339 4.28038 14.8726C4.90086 15.2113 14.6992 20.5628 17.2813 21.9628C19.8107 23.3328 21.3957 24.3917 21.4118 24.4022C21.5286 24.4802 21.6936 24.5074 21.8395 24.4602C21.8898 24.4434 26.9057 22.8248 29.1535 22.645C29.4297 22.6254 29.719 22.6274 30.0134 22.6386C29.0477 23.059 28.1971 23.6023 27.5943 24.234C26.1544 25.7445 25.1426 26.8919 25.2362 27.904C25.2713 28.2811 25.4671 28.6106 25.8021 28.8584C27.2657 29.9366 29.1785 28.8808 31.9321 27.1453C33.9929 25.8482 36.7225 27.1077 40.2782 30.9967C41.037 31.8254 41.669 32.7137 42.1554 33.6357C42.6922 34.6498 42.7189 35.3588 42.2379 35.8025C41.6901 36.3077 40.7714 36.3021 40.2557 35.8289C40.2549 35.8281 40.2418 35.8157 40.2325 35.8065C39.1056 34.7844 38.0261 33.7166 36.9217 32.6734C36.7369 32.4984 36.437 32.4984 36.2517 32.6734C36.0669 32.8483 36.0669 33.1322 36.2517 33.3071C37.3595 34.3564 38.472 35.4014 39.5764 36.4538C40.1047 36.9763 40.098 37.8202 39.5629 38.3343C39.0401 38.8283 38.1252 38.8307 37.6116 38.3715L35.069 35.9651C34.8842 35.7902 34.5842 35.7902 34.399 35.9651C34.2141 36.1401 34.2141 36.4239 34.399 36.5993L36.9509 39.0145C37.4263 39.4645 37.6166 40.1679 37.0849 40.6804C36.8582 40.8873 36.5659 41.0018 36.2605 41.0018C36.0533 41.0018 35.75 40.9514 35.4907 40.7216L33.9167 39.2411C33.8275 39.067 33.7145 38.9012 33.5623 38.7563C33.3182 38.5253 33.0107 38.38 32.6854 38.3071C32.9967 37.9516 33.1744 37.514 33.1744 37.0464C33.1744 36.5148 32.9561 36.0155 32.5585 35.64C32.2125 35.3125 31.7747 35.1319 31.3234 35.0807C31.7531 34.248 31.6127 33.2166 30.8826 32.5256C30.2299 31.9079 29.2883 31.7377 28.4669 31.9976C28.4677 31.4227 28.2367 30.8473 27.7744 30.4098C26.851 29.5359 25.3482 29.5359 24.4247 30.4098L21.2695 33.396C21.1465 33.5125 21.0424 33.6398 20.9523 33.7732C20.446 33.4529 17.8116 31.7982 15.7892 30.7982C13.6061 29.7177 4.81111 25.7998 4.7234 25.7599C4.48695 25.6554 4.20439 25.7507 4.09272 25.9748C3.98148 26.199 4.08299 26.4661 4.31987 26.5718C4.40828 26.6106 13.1845 30.5212 15.351 31.5929C17.5015 32.6566 20.6109 34.6283 20.6109 34.6283C20.6109 34.6283 20.6012 34.6876 20.5961 34.73C20.5183 35.385 20.7399 36.066 21.2695 36.5668C21.8182 37.0861 22.5297 37.2586 23.283 37.1966C23.1802 37.8884 23.4171 38.5997 23.9412 39.0954C24.4492 39.5758 25.1328 39.7844 25.8396 39.7303C25.7418 40.3549 25.9508 40.997 26.4245 41.4454C26.8594 41.8569 27.4334 42.0411 28.04 42.0215C27.9829 42.5563 28.1681 43.096 28.5721 43.4784C28.9393 43.8259 29.4215 44 29.9037 44C30.3863 44 30.8681 43.8263 31.2357 43.4784L32.1545 42.6088L32.9336 43.3462C33.2754 43.6813 33.75 43.8659 34.2703 43.8659C34.7775 43.8659 35.2504 43.6833 35.6011 43.3518C36.0232 42.9523 36.1945 42.409 36.1323 41.8861C36.7304 41.921 37.3248 41.708 37.7524 41.3157C38.2372 40.8492 38.4245 40.2075 38.3256 39.6006C38.4059 39.6082 38.485 39.6218 38.5675 39.6218C39.1876 39.6218 39.7946 39.3836 40.2358 38.9661C40.7539 38.4684 40.9815 37.7574 40.8804 37.0688C41.5437 37.1184 42.4663 37.0075 42.8986 36.4446C43.4442 35.9422 43.6269 35.2805 43.4649 34.4753C44.0994 34.0758 46.5985 32.5192 48.4728 31.592C50.6389 30.5207 59.414 26.6101 59.5028 26.5713C59.7401 26.4664 59.8421 26.1993 59.73 25.9751L59.7305 25.9751ZM21.9407 35.9329C21.3866 35.4084 21.3866 34.5549 21.9407 34.0305L25.0958 31.0443C25.3729 30.782 25.7367 30.6511 26.1008 30.6511C26.4646 30.6511 26.8284 30.7824 27.1059 31.0443C27.6596 31.5687 27.6596 32.4222 27.1059 32.9464L23.9491 35.9341C23.3946 36.4566 22.4944 36.4558 21.9407 35.9329L21.9407 35.9329ZM24.6123 38.4615C24.3458 38.2093 24.1991 37.8742 24.1991 37.5179C24.1991 37.1616 24.3458 36.8265 24.6203 36.5667L27.7755 33.58C28.1951 33.1829 28.5741 32.7685 29.2167 32.7685C29.5931 32.7685 29.9472 32.9074 30.2137 33.1597C30.4802 33.4119 30.6269 33.747 30.6269 34.1033C30.6269 34.4596 30.4802 34.7947 30.2137 35.0469L26.6064 38.4614C26.0565 38.9823 25.1615 38.9815 24.6124 38.4614L24.6123 38.4615ZM27.0958 40.8116C26.6457 40.3856 26.6457 39.6926 27.0958 39.2666L30.258 36.2737C30.4831 36.0607 30.7783 35.9546 31.074 35.9546C31.3697 35.9546 31.6653 36.0611 31.89 36.2737C32.1082 36.4798 32.2284 36.7545 32.2284 37.0459C32.2284 37.3374 32.1087 37.612 31.89 37.8182L28.7277 40.8112C28.292 41.2252 27.5314 41.2252 27.0958 40.8116L27.0958 40.8116ZM30.5669 42.8449C30.2023 43.19 29.6088 43.19 29.2433 42.8449C28.8787 42.4994 28.8787 41.9378 29.2433 41.5922C29.9328 40.9401 30.6231 40.2915 31.2965 39.6261C31.5347 39.3907 31.8278 39.1777 32.1704 39.1429C32.6471 39.0944 33.1315 39.4683 33.1598 39.9215C33.1826 40.2875 32.9453 40.6238 32.67 40.8816C31.9708 41.5361 31.264 42.1851 30.5668 42.8449L30.5669 42.8449ZM34.9321 42.7184C34.5853 43.0467 33.9402 43.0427 33.6107 42.7188L32.8252 41.9754L33.5633 41.2768C33.774 41.0774 33.917 40.84 34.0066 40.5894L34.9317 41.4597C35.2985 41.8064 35.2985 42.3713 34.9321 42.7184L34.9321 42.7184Z" fill="#FFD089"/>
<defs>
<filter id="filter0_i_183_1465" x="13.34" y="8.75999" width="39.6857" height="13.14" filterUnits="userSpaceOnUse" color-interpolation-filters="sRGB">
<feFlood flood-opacity="0" result="BackgroundImageFix"/>
<feBlend mode="normal" in="SourceGraphic" in2="BackgroundImageFix" result="shape"/>
<feColorMatrix in="SourceAlpha" type="matrix" values="0 0 0 0 0 0 0 0 0 0 0 0 0 0 0 0 0 0 127 0" result="hardAlpha"/>
<feOffset dy="4"/>
<feGaussianBlur stdDeviation="2"/>
<feComposite in2="hardAlpha" operator="arithmetic" k2="-1" k3="1"/>
<feColorMatrix type="matrix" values="0 0 0 0 0 0 0 0 0 0 0 0 0 0 0 0 0 0 0.25 0"/>
<feBlend mode="normal" in2="shape" result="effect1_innerShadow_183_1465"/>
</filter>
</defs>
</svg>
