<svg width="40" height="40" viewBox="0 0 40 40" fill="none" xmlns="http://www.w3.org/2000/svg">
<g clip-path="url(#clip0_456_2016)">
<circle cx="20" cy="20" r="20" fill="#F3F5F5"/>
<path d="M46.9531 16.0361C46.8438 15.8203 46.5657 15.729 46.3337 15.8292C46.2464 15.8677 37.6035 19.6378 35.4581 20.6777C33.7295 21.515 31.5448 22.8289 30.6768 23.3605C30.6257 23.2492 30.5762 23.1386 30.5139 23.023C30.0008 22.0713 29.3361 21.157 28.5396 20.3044C27.3107 18.9894 25.9936 17.6967 24.3852 16.7759C23.4873 16.2619 22.4958 15.8778 21.4319 15.8277C20.3299 15.7757 19.3641 16.2847 18.4616 16.8195C17.4194 17.4371 15.9207 18.6061 14.5749 18.3117C13.9696 18.1792 13.9214 17.7184 14.1638 17.2668C15.6845 14.4356 19.0672 12.5689 22.494 12.8332C24.7002 13.0004 29.632 14.562 29.6819 14.5779C29.822 14.6222 29.9791 14.6014 30.1022 14.522C30.1176 14.512 31.6698 13.4971 34.1572 12.1782C36.6973 10.8309 46.3493 5.65246 46.9336 5.34649C47.5177 5.04095 47.1223 4.24838 46.468 4.59902C45.8132 4.94964 36.2333 10.083 33.6948 11.4292C31.6494 12.5134 30.2547 13.3776 29.7599 13.6917C28.746 13.3761 24.6399 12.1309 22.5704 11.9732C21.64 11.9035 20.6451 11.996 19.6803 12.2094C18.695 11.9925 17.7114 11.9089 16.8271 11.9717C14.7539 12.1335 10.6494 13.3773 9.6355 13.692C9.14038 13.3772 7.74102 12.5103 5.69691 11.4256C3.15387 10.0763 -6.51648 4.89525 -7.0784 4.60359C-7.64033 4.31192 -8.15383 5.0251 -7.54402 5.35106C-6.9342 5.67702 2.69571 10.8273 5.23343 12.1747C7.71942 13.4932 9.27717 14.5123 9.29303 14.5223C9.40776 14.5975 9.5699 14.6237 9.71332 14.5782C9.76279 14.562 14.6924 13.0043 16.9016 12.8313C17.1731 12.8124 17.4574 12.8143 17.7468 12.8251C16.7977 13.2297 15.9617 13.7525 15.3692 14.3605C13.9541 15.8142 12.9597 16.9185 13.0516 17.8925C13.0861 18.2555 13.2786 18.5726 13.6079 18.8111C15.0463 19.8487 16.9262 18.8326 19.6325 17.1624C21.6579 15.914 24.3405 17.1261 27.8351 20.8689C28.5809 21.6665 29.2021 22.5215 29.6801 23.4088C30.2077 24.3847 30.2339 25.0671 29.7612 25.4941C29.2228 25.9803 28.3199 25.9749 27.8131 25.5195C27.8122 25.5187 27.7994 25.5068 27.7902 25.4979C26.6827 24.5142 25.6218 23.4866 24.5364 22.4826C24.3547 22.3142 24.0599 22.3142 23.8778 22.4826C23.6962 22.651 23.6962 22.9242 23.8778 23.0925C24.9666 24.1024 26.06 25.1081 27.1454 26.1209C27.6647 26.6238 27.658 27.436 27.1321 27.9307C26.6183 28.4062 25.7191 28.4085 25.2143 27.9666L22.7155 25.6506C22.5338 25.4822 22.239 25.4822 22.057 25.6506C21.8753 25.819 21.8753 26.0921 22.057 26.2609L24.565 28.5853C25.0323 29.0184 25.2193 29.6954 24.6968 30.1886C24.4739 30.3878 24.1867 30.498 23.8865 30.498C23.6828 30.498 23.3847 30.4494 23.1299 30.2283L21.583 28.8035C21.4953 28.6359 21.3843 28.4763 21.2346 28.3369C20.9948 28.1145 20.6925 27.9747 20.3728 27.9046C20.6788 27.5624 20.8534 27.1413 20.8534 26.6912C20.8534 26.1796 20.6389 25.6991 20.2481 25.3377C19.9081 25.0225 19.4778 24.8487 19.0342 24.7994C19.4566 23.998 19.3186 23.0054 18.601 22.3404C17.9596 21.7459 17.0341 21.5821 16.2268 21.8322C16.2276 21.2789 16.0006 20.7252 15.5463 20.3041C14.6387 19.463 13.1617 19.463 12.2541 20.3041L9.15317 23.1781C9.0322 23.2902 8.92992 23.4127 8.84138 23.541C8.34375 23.2328 5.75461 21.6403 3.76701 20.6779C1.62147 19.638 -7.02241 15.8675 -7.10861 15.829C-7.341 15.7284 -7.61871 15.8201 -7.72845 16.0359C-7.83778 16.2517 -7.73802 16.5087 -7.5052 16.6104C-7.41832 16.6477 1.20711 20.4113 3.33636 21.4427C5.44986 22.4665 8.50587 24.3641 8.50587 24.3641C8.50587 24.3641 8.49631 24.4211 8.49132 24.4619C8.41483 25.0923 8.63266 25.7476 9.15316 26.2297C9.69235 26.7294 10.3916 26.8955 11.132 26.8357C11.031 27.5015 11.2638 28.1862 11.7789 28.6632C12.2782 29.1255 12.95 29.3263 13.6446 29.2742C13.5486 29.8753 13.754 30.4933 14.2196 30.9248C14.6469 31.3209 15.2111 31.4981 15.8072 31.4793C15.7511 31.994 15.9332 32.5134 16.3302 32.8814C16.6911 33.2158 17.165 33.3834 17.6389 33.3834C18.1133 33.3834 18.5868 33.2162 18.9481 32.8814L19.851 32.0445L20.6168 32.7542C20.9527 33.0767 21.4192 33.2543 21.9305 33.2543C22.429 33.2543 22.8938 33.0786 23.2384 32.7596C23.6533 32.3751 23.8216 31.8522 23.7605 31.349C24.3484 31.3825 24.9325 31.1776 25.3528 30.8C25.8292 30.3511 26.0133 29.7335 25.9161 29.1494C25.9951 29.1567 26.0728 29.1698 26.1539 29.1698C26.7633 29.1698 27.3599 28.9406 27.7935 28.5387C28.3027 28.0598 28.5264 27.3755 28.427 26.7128C29.0789 26.7605 29.9856 26.6538 30.4105 26.1121C30.9468 25.6285 31.1263 24.9917 30.9671 24.2168C31.5907 23.8323 34.0469 22.3342 35.8889 21.4419C38.0178 20.4108 46.6421 16.6473 46.7294 16.6099C46.9626 16.5089 47.0628 16.252 46.9526 16.0362L46.9531 16.0361ZM9.81277 25.6196C9.26817 25.1148 9.26817 24.2934 9.81277 23.7887L12.9137 20.9147C13.186 20.6624 13.5435 20.5364 13.9014 20.5364C14.259 20.5364 14.6165 20.6628 14.8892 20.9147C15.4334 21.4195 15.4334 22.2409 14.8892 22.7453L11.7867 25.6208C11.2417 26.1236 10.357 26.1228 9.81281 25.6196L9.81277 25.6196ZM12.4385 28.0531C12.1766 27.8104 12.0323 27.4879 12.0323 27.145C12.0323 26.8021 12.1766 26.4796 12.4464 26.2295L15.5473 23.3552C15.9597 22.973 16.3322 22.5742 16.9637 22.5742C17.3337 22.5742 17.6817 22.7079 17.9436 22.9506C18.2055 23.1933 18.3497 23.5158 18.3497 23.8587C18.3497 24.2017 18.2055 24.5242 17.9436 24.7669L14.3983 28.053C13.8579 28.5543 12.9782 28.5535 12.4386 28.053L12.4385 28.0531ZM14.8793 30.3148C14.4369 29.9049 14.4369 29.2379 14.8793 28.828L17.9872 25.9475C18.2084 25.7426 18.4985 25.6405 18.7891 25.6405C19.0797 25.6405 19.3703 25.7429 19.5911 25.9475C19.8056 26.146 19.9237 26.4103 19.9237 26.6908C19.9237 26.9713 19.806 27.2356 19.5911 27.434L16.4831 30.3145C16.0549 30.7129 15.3075 30.7129 14.8793 30.3149L14.8793 30.3148ZM18.2907 32.2718C17.9324 32.6039 17.3491 32.6039 16.9899 32.2718C16.6315 31.9393 16.6315 31.3987 16.9899 31.0662C17.6675 30.4385 18.346 29.8144 19.0078 29.1739C19.2419 28.9474 19.53 28.7424 19.8667 28.7089C20.3352 28.6623 20.8112 29.0221 20.8391 29.4583C20.8615 29.8104 20.6283 30.1341 20.3577 30.3822C19.6705 31.0122 18.9759 31.6368 18.2907 32.2717L18.2907 32.2718ZM22.581 32.15C22.2401 32.466 21.6061 32.4621 21.2822 32.1504L20.5102 31.4349L21.2357 30.7626C21.4427 30.5707 21.5832 30.3422 21.6714 30.101L22.5806 30.9387C22.941 31.2723 22.941 31.816 22.581 32.15L22.581 32.15Z" fill="#3579DC"/>
</g>
<defs>
<clipPath id="clip0_456_2016">
<rect width="40" height="40" rx="20" fill="white"/>
</clipPath>
</defs>
</svg>
