<?xml version="1.0" encoding="UTF-8"?>
<svg width="700pt" height="700pt" version="1.1" viewBox="0 0 700 700" xmlns="http://www.w3.org/2000/svg" xmlns:xlink="http://www.w3.org/1999/xlink">
 <defs>
  <symbol id="u" overflow="visible">
   <path d="m6.6094-0.39062c-0.33594 0.17969-0.6875 0.30859-1.0625 0.39062-0.36719 0.09375-0.75 0.14062-1.1562 0.14062-1.1992 0-2.1523-0.33203-2.8594-1-0.69922-0.67578-1.0469-1.5859-1.0469-2.7344 0-1.1445 0.34766-2.0508 1.0469-2.7188 0.70703-0.67578 1.6602-1.0156 2.8594-1.0156 0.40625 0 0.78906 0.046875 1.1562 0.14062 0.375 0.085938 0.72656 0.21484 1.0625 0.39062v1.5c-0.34375-0.23828-0.68359-0.41016-1.0156-0.51562-0.33594-0.11328-0.68359-0.17188-1.0469-0.17188-0.66797 0-1.1953 0.21484-1.5781 0.64062-0.375 0.42969-0.5625 1.0117-0.5625 1.75 0 0.74219 0.1875 1.3242 0.5625 1.75 0.38281 0.42969 0.91016 0.64062 1.5781 0.64062 0.36328 0 0.71094-0.050781 1.0469-0.15625 0.33203-0.11328 0.67188-0.28906 1.0156-0.53125z"/>
  </symbol>
  <symbol id="d" overflow="visible">
   <path d="m4.8438-3.9375c-0.15625-0.0625-0.30859-0.10938-0.45312-0.14062-0.14844-0.039063-0.29688-0.0625-0.45312-0.0625-0.4375 0-0.77734 0.14844-1.0156 0.4375-0.24219 0.28125-0.35938 0.6875-0.35938 1.2188v2.4844h-1.7344v-5.4062h1.7344v0.89062c0.21875-0.35156 0.46875-0.60938 0.75-0.76562 0.28906-0.16406 0.64062-0.25 1.0469-0.25 0.050781 0 0.10938 0.007812 0.17188 0.015625 0.070312 0 0.17578 0.011719 0.3125 0.03125z"/>
  </symbol>
  <symbol id="a" overflow="visible">
   <path d="m6.2188-2.7188v0.5h-4.0312c0.039062 0.40625 0.1875 0.71484 0.4375 0.92188 0.25 0.19922 0.59766 0.29688 1.0469 0.29688 0.36328 0 0.73438-0.050781 1.1094-0.15625 0.38281-0.11328 0.78125-0.28125 1.1875-0.5v1.3281c-0.40625 0.15625-0.82031 0.27344-1.2344 0.34375-0.40625 0.082031-0.8125 0.125-1.2188 0.125-0.98047 0-1.7422-0.24219-2.2812-0.73438-0.54297-0.5-0.8125-1.2031-0.8125-2.1094 0-0.875 0.26562-1.5625 0.79688-2.0625 0.53125-0.50781 1.2656-0.76562 2.2031-0.76562 0.84375 0 1.5195 0.25781 2.0312 0.76562 0.50781 0.51172 0.76562 1.1953 0.76562 2.0469zm-1.7656-0.5625c0-0.33203-0.10156-0.59766-0.29688-0.79688-0.1875-0.20703-0.4375-0.3125-0.75-0.3125-0.33594 0-0.60547 0.10156-0.8125 0.29688-0.21094 0.1875-0.33984 0.46094-0.39062 0.8125z"/>
  </symbol>
  <symbol id="c" overflow="visible">
   <path d="m3.25-2.4375c-0.36719 0-0.63672 0.0625-0.8125 0.1875-0.17969 0.125-0.26562 0.30859-0.26562 0.54688 0 0.21875 0.070313 0.39062 0.21875 0.51562 0.14453 0.125 0.34766 0.1875 0.60938 0.1875 0.32031 0 0.59375-0.11328 0.8125-0.34375 0.21875-0.23828 0.32812-0.53516 0.32812-0.89062v-0.20312zm2.6406-0.64062v3.0781h-1.75v-0.79688c-0.23047 0.32422-0.49219 0.5625-0.78125 0.71875-0.28125 0.14453-0.63281 0.21875-1.0469 0.21875-0.5625 0-1.0234-0.16016-1.375-0.48438-0.34375-0.33203-0.51562-0.75781-0.51562-1.2812 0-0.625 0.21875-1.082 0.65625-1.375 0.4375-0.30078 1.1172-0.45312 2.0469-0.45312h1.0156v-0.14062c0-0.26953-0.10938-0.46875-0.32812-0.59375-0.21094-0.13281-0.54297-0.20312-1-0.20312-0.36719 0-0.71094 0.042969-1.0312 0.125-0.3125 0.074219-0.60938 0.18359-0.89062 0.32812v-1.3125c0.375-0.09375 0.74219-0.16016 1.1094-0.20312 0.375-0.050781 0.75-0.078125 1.125-0.078125 0.97656 0 1.6797 0.19531 2.1094 0.57812 0.4375 0.38672 0.65625 1.0117 0.65625 1.875z"/>
  </symbol>
  <symbol id="b" overflow="visible">
   <path d="m2.7188-6.9375v1.5312h1.7812v1.2344h-1.7812v2.2969c0 0.25 0.046875 0.42188 0.14062 0.51562 0.10156 0.085937 0.30078 0.125 0.59375 0.125h0.89062v1.2344h-1.4844c-0.67969 0-1.1641-0.14062-1.4531-0.42188-0.28125-0.28906-0.42188-0.77344-0.42188-1.4531v-2.2969h-0.85938v-1.2344h0.85938v-1.5312z"/>
  </symbol>
  <symbol id="m" overflow="visible">
   <path d="m4.5-4.6094v-2.8906h1.7344v7.5h-1.7344v-0.78125c-0.24219 0.32422-0.50781 0.55859-0.79688 0.70312-0.28125 0.14453-0.60938 0.21875-0.98438 0.21875-0.66797 0-1.2148-0.26562-1.6406-0.79688-0.42969-0.53125-0.64062-1.2109-0.64062-2.0469 0-0.82031 0.21094-1.5 0.64062-2.0312 0.42578-0.53125 0.97266-0.79688 1.6406-0.79688 0.375 0 0.70312 0.078125 0.98438 0.23438 0.28906 0.14844 0.55469 0.375 0.79688 0.6875zm-1.1406 3.5c0.375 0 0.65625-0.13281 0.84375-0.40625 0.19531-0.26953 0.29688-0.66406 0.29688-1.1875 0-0.50781-0.10156-0.89844-0.29688-1.1719-0.1875-0.26953-0.46875-0.40625-0.84375-0.40625-0.36719 0-0.64844 0.13672-0.84375 0.40625-0.1875 0.27344-0.28125 0.66406-0.28125 1.1719 0 0.52344 0.09375 0.91797 0.28125 1.1875 0.19531 0.27344 0.47656 0.40625 0.84375 0.40625z"/>
  </symbol>
  <symbol id="l" overflow="visible">
   <path d="m3.7031-1.1094c0.36328 0 0.64453-0.13281 0.84375-0.40625 0.19531-0.26953 0.29688-0.66406 0.29688-1.1875 0-0.50781-0.10156-0.89844-0.29688-1.1719-0.19922-0.26953-0.48047-0.40625-0.84375-0.40625-0.36719 0-0.64844 0.13672-0.84375 0.40625-0.19922 0.27344-0.29688 0.66406-0.29688 1.1719 0 0.52344 0.097656 0.91797 0.29688 1.1875 0.19531 0.27344 0.47656 0.40625 0.84375 0.40625zm-1.1406-3.5c0.22656-0.3125 0.48828-0.53906 0.78125-0.6875 0.28906-0.15625 0.625-0.23438 1-0.23438 0.66406 0 1.2109 0.26562 1.6406 0.79688 0.42578 0.53125 0.64062 1.2109 0.64062 2.0312 0 0.83594-0.21484 1.5156-0.64062 2.0469-0.42969 0.53125-0.97656 0.79688-1.6406 0.79688-0.375 0-0.71094-0.074219-1-0.21875-0.29297-0.15625-0.55469-0.39062-0.78125-0.70312v0.78125h-1.7344v-7.5h1.7344z"/>
  </symbol>
  <symbol id="k" overflow="visible">
   <path d="m0.125-5.4062h1.7188l1.4531 3.6719 1.2344-3.6719h1.7344l-2.2812 5.9219c-0.23047 0.59375-0.49609 1.0078-0.79688 1.25-0.30469 0.23828-0.70312 0.35938-1.2031 0.35938h-1v-1.125h0.54688c0.28906 0 0.50391-0.046875 0.64062-0.14062 0.13281-0.09375 0.23828-0.26172 0.3125-0.5l0.046875-0.15625z"/>
  </symbol>
  <symbol id="j" overflow="visible">
   <path d="m5.2812-1.3125h-2.9062l-0.45312 1.3125h-1.875l2.6719-7.2031h2.2031l2.6719 7.2031h-1.8594zm-2.4531-1.3281h1.9844l-0.98438-2.875z"/>
  </symbol>
  <symbol id="i" overflow="visible">
   <path d="m4.5-0.92188c-0.24219 0.32422-0.50781 0.55859-0.79688 0.70312-0.28125 0.14844-0.60938 0.21875-0.98438 0.21875-0.65625 0-1.2031-0.25781-1.6406-0.78125-0.42969-0.51953-0.64062-1.1797-0.64062-1.9844 0-0.80078 0.21094-1.457 0.64062-1.9688 0.4375-0.51953 0.98438-0.78125 1.6406-0.78125 0.375 0 0.70312 0.074219 0.98438 0.21875 0.28906 0.14844 0.55469 0.38281 0.79688 0.70312v-0.8125h1.7344v4.8594c0 0.86328-0.27734 1.5234-0.82812 1.9844-0.54297 0.45703-1.3359 0.6875-2.375 0.6875-0.33594 0-0.66406-0.027344-0.98438-0.078125-0.3125-0.042969-0.625-0.12109-0.9375-0.23438v-1.3438c0.30078 0.17578 0.59375 0.30469 0.875 0.39062 0.28906 0.082031 0.58203 0.125 0.875 0.125 0.57031 0 0.98828-0.125 1.25-0.375 0.25781-0.24219 0.39062-0.625 0.39062-1.1562zm-1.1406-3.3594c-0.35547 0-0.63281 0.13672-0.82812 0.40625-0.19922 0.26172-0.29688 0.63281-0.29688 1.1094 0 0.5 0.09375 0.88281 0.28125 1.1406 0.19531 0.25 0.47656 0.375 0.84375 0.375 0.36328 0 0.64453-0.12891 0.84375-0.39062 0.19531-0.26953 0.29688-0.64453 0.29688-1.125 0-0.47656-0.10156-0.84766-0.29688-1.1094-0.19922-0.26953-0.48047-0.40625-0.84375-0.40625z"/>
  </symbol>
  <symbol id="h" overflow="visible">
   <path d="m0.76562-2.1094v-3.2969h1.7344v0.54688 1.1094 0.875c0 0.4375 0.007812 0.75 0.03125 0.9375 0.019531 0.1875 0.054688 0.32812 0.10938 0.42188 0.070313 0.11719 0.16406 0.20312 0.28125 0.26562 0.11328 0.054688 0.24219 0.078125 0.39062 0.078125 0.36328 0 0.64453-0.13281 0.84375-0.40625 0.20703-0.28125 0.3125-0.66406 0.3125-1.1562v-2.6719h1.7344v5.4062h-1.7344v-0.78125c-0.26172 0.3125-0.53906 0.54688-0.82812 0.70312-0.28125 0.14453-0.60156 0.21875-0.95312 0.21875-0.625 0-1.1055-0.1875-1.4375-0.5625-0.32422-0.38281-0.48438-0.94531-0.48438-1.6875z"/>
  </symbol>
  <symbol id="g" overflow="visible">
   <path d="m6.2656-3.2812v3.2812h-1.75v-2.5156c0-0.46875-0.011719-0.78906-0.03125-0.96875-0.023437-0.17578-0.054687-0.30469-0.09375-0.39062-0.074219-0.11328-0.16797-0.20312-0.28125-0.26562-0.11719-0.0625-0.24609-0.09375-0.39062-0.09375-0.36719 0-0.65234 0.14062-0.85938 0.42188-0.19922 0.28125-0.29688 0.66797-0.29688 1.1562v2.6562h-1.7344v-5.4062h1.7344v0.79688c0.25781-0.3125 0.53516-0.53906 0.82812-0.6875 0.28906-0.15625 0.61328-0.23438 0.96875-0.23438 0.625 0 1.0977 0.19531 1.4219 0.57812 0.32031 0.375 0.48438 0.93359 0.48438 1.6719z"/>
  </symbol>
  <symbol id="t" overflow="visible">
   <path d="m3.5469-4c0.38281 0 0.66016-0.070312 0.82812-0.21875 0.17578-0.14453 0.26562-0.38281 0.26562-0.71875 0-0.32031-0.089844-0.55469-0.26562-0.70312-0.16797-0.14453-0.44531-0.21875-0.82812-0.21875h-0.78125v1.8594zm-0.78125 1.2812v2.7188h-1.8594v-7.2031h2.8281c0.95703 0 1.6562 0.16406 2.0938 0.48438 0.4375 0.3125 0.65625 0.8125 0.65625 1.5 0 0.48047-0.11719 0.875-0.34375 1.1875-0.23047 0.30469-0.57422 0.52734-1.0312 0.67188 0.25 0.054687 0.47266 0.18359 0.67188 0.39062 0.20703 0.19922 0.41406 0.50781 0.625 0.92188l1 2.0469h-1.9844l-0.875-1.7812c-0.17969-0.36328-0.35938-0.60938-0.54688-0.73438-0.17969-0.13281-0.41797-0.20312-0.71875-0.20312z"/>
  </symbol>
  <symbol id="f" overflow="visible">
   <path d="m5.8281-4.5c0.21875-0.33203 0.47656-0.58594 0.78125-0.76562 0.30078-0.17578 0.63281-0.26562 1-0.26562 0.61328 0 1.082 0.19531 1.4062 0.57812 0.33203 0.375 0.5 0.93359 0.5 1.6719v3.2812h-1.75v-2.8125c0.007813-0.039062 0.015625-0.082031 0.015625-0.125v-0.20312c0-0.38281-0.058594-0.66016-0.17188-0.82812-0.11719-0.17578-0.29688-0.26562-0.54688-0.26562-0.32422 0-0.57422 0.13672-0.75 0.40625-0.17969 0.27344-0.27344 0.66406-0.28125 1.1719v2.6562h-1.7344v-2.8125c0-0.60156-0.054687-0.98828-0.15625-1.1562-0.10547-0.17578-0.28906-0.26562-0.54688-0.26562-0.33594 0-0.58984 0.14062-0.76562 0.42188-0.17969 0.27344-0.26562 0.65625-0.26562 1.1562v2.6562h-1.75v-5.4062h1.75v0.79688c0.20703-0.30078 0.44531-0.53125 0.71875-0.6875 0.28125-0.15625 0.58203-0.23438 0.90625-0.23438 0.375 0 0.70312 0.09375 0.98438 0.28125 0.28906 0.17969 0.50781 0.42969 0.65625 0.75z"/>
  </symbol>
  <symbol id="s" overflow="visible">
   <path d="m4.3906-7.5v1.125h-0.96875c-0.24219 0-0.41406 0.046875-0.51562 0.14062-0.09375 0.085937-0.14062 0.23438-0.14062 0.45312v0.375h1.4844v1.2344h-1.4844v4.1719h-1.7188v-4.1719h-0.85938v-1.2344h0.85938v-0.375c0-0.58203 0.16016-1.0156 0.48438-1.2969 0.33203-0.28125 0.84375-0.42188 1.5312-0.42188z"/>
  </symbol>
  <symbol id="e" overflow="visible">
   <path d="m3.4062-4.2969c-0.38672 0-0.68359 0.14062-0.89062 0.42188-0.19922 0.27344-0.29688 0.66406-0.29688 1.1719 0 0.52344 0.097656 0.92188 0.29688 1.2031 0.20703 0.27344 0.50391 0.40625 0.89062 0.40625 0.375 0 0.66016-0.13281 0.85938-0.40625 0.19531-0.28125 0.29688-0.67969 0.29688-1.2031 0-0.50781-0.10156-0.89844-0.29688-1.1719-0.19922-0.28125-0.48438-0.42188-0.85938-0.42188zm0-1.2344c0.92578 0 1.6484 0.25 2.1719 0.75 0.51953 0.5 0.78125 1.1953 0.78125 2.0781 0 0.89844-0.26172 1.5938-0.78125 2.0938-0.52344 0.5-1.2461 0.75-2.1719 0.75-0.9375 0-1.6719-0.25-2.2031-0.75-0.52344-0.5-0.78125-1.1953-0.78125-2.0938 0-0.88281 0.25781-1.5781 0.78125-2.0781 0.53125-0.5 1.2656-0.75 2.2031-0.75z"/>
  </symbol>
  <symbol id="r" overflow="visible">
   <path d="m6.2656-3.2812v3.2812h-1.75v-2.5c0-0.47656-0.011719-0.80469-0.03125-0.98438-0.023437-0.17578-0.054687-0.30469-0.09375-0.39062-0.074219-0.11328-0.16797-0.20312-0.28125-0.26562-0.11719-0.0625-0.24609-0.09375-0.39062-0.09375-0.36719 0-0.65234 0.14062-0.85938 0.42188-0.19922 0.28125-0.29688 0.66797-0.29688 1.1562v2.6562h-1.7344v-7.5h1.7344v2.8906c0.25781-0.3125 0.53516-0.53906 0.82812-0.6875 0.28906-0.15625 0.61328-0.23438 0.96875-0.23438 0.625 0 1.0977 0.19531 1.4219 0.57812 0.32031 0.375 0.48438 0.93359 0.48438 1.6719z"/>
  </symbol>
  <symbol id="q" overflow="visible">
   <path d="m0.90625-7.2031h2.0781l2.6094 4.9375v-4.9375h1.7656v7.2031h-2.0781l-2.6094-4.9375v4.9375h-1.7656z"/>
  </symbol>
  <symbol id="p" overflow="visible">
   <path d="m0.90625-7.2031h3.0781c0.91406 0 1.6172 0.20312 2.1094 0.60938 0.48828 0.40625 0.73438 0.99219 0.73438 1.75 0 0.75-0.24609 1.3281-0.73438 1.7344-0.49219 0.40625-1.1953 0.60938-2.1094 0.60938h-1.2188v2.5h-1.8594zm1.8594 1.3438v2.0156h1.0312c0.35156 0 0.62891-0.085938 0.82812-0.26562 0.19531-0.17578 0.29688-0.42188 0.29688-0.73438 0-0.32031-0.10156-0.57031-0.29688-0.75-0.19922-0.17578-0.47656-0.26562-0.82812-0.26562z"/>
  </symbol>
  <symbol id="o" overflow="visible">
   <path d="m0.82812-5.4062h1.7344v5.3125c0 0.71875-0.17969 1.2656-0.53125 1.6406-0.34375 0.38281-0.84375 0.57812-1.5 0.57812h-0.85938v-1.125h0.29688c0.33203 0 0.55469-0.078125 0.67188-0.23438 0.125-0.14844 0.1875-0.43359 0.1875-0.85938zm0-2.0938h1.7344v1.4062h-1.7344z"/>
  </symbol>
  <symbol id="n" overflow="visible">
   <path d="m5.1875-5.2344v1.4062c-0.23047-0.15625-0.46484-0.26953-0.70312-0.34375-0.24219-0.082031-0.48438-0.125-0.73438-0.125-0.48047 0-0.85547 0.14062-1.125 0.42188-0.27344 0.28125-0.40625 0.67188-0.40625 1.1719 0 0.51172 0.13281 0.90625 0.40625 1.1875 0.26953 0.28125 0.64453 0.42188 1.125 0.42188 0.26953 0 0.52344-0.035156 0.76562-0.10938 0.25-0.082031 0.47266-0.20703 0.67188-0.375v1.4219c-0.27344 0.09375-0.54688 0.16406-0.82812 0.21875-0.27344 0.050781-0.54688 0.078125-0.82812 0.078125-0.96875 0-1.7305-0.25-2.2812-0.75-0.55469-0.5-0.82812-1.1953-0.82812-2.0938 0-0.88281 0.27344-1.5781 0.82812-2.0781 0.55078-0.5 1.3125-0.75 2.2812-0.75 0.28125 0 0.55469 0.027344 0.82812 0.078125 0.28125 0.054687 0.55469 0.125 0.82812 0.21875z"/>
  </symbol>
 </defs>
 <g>
  <path d="m558.27 245.37c29.605 26.277 48.488 62.543 53.047 101.86 0.17188 1.4805-0.25391 2.9688-1.1797 4.1367-0.92578 1.1641-2.2812 1.918-3.7617 2.0859-7.0117 0.78906-23.707-0.65234-30.84-1.9766-10.129-1.9922-20.051-4.9297-29.633-8.7695-31.543-11.988-60.523-29.852-85.402-52.652-23.707-21.238-43.641-45.102-62.605-68.613-3.0234-3.7734 1.3633-8.5156 5.2344-9.7188 54.012-16.746 112.85-4.0039 155.1 33.586zm-7.4688 8.3945v0.003906c-37.805-33.633-90.004-45.961-138.86-32.797 17.129 21.059 35.203 42.121 56.086 60.809h0.003907c23.832 21.867 51.609 39.004 81.848 50.496 8.9453 3.5859 18.203 6.332 27.656 8.1992 7.1875 1.1641 14.453 1.7383 21.734 1.7188-5.4531-34.191-22.578-65.438-48.465-88.426z" fill-rule="evenodd"/>
  <path d="m545.94 342.79c-72.465-27.066-115.39-80.586-155.62-130.73-34.73-43.305-73.332-92.852-130.23-106.19-28.715-6.8008-58.953-2.1914-84.336 12.863-23.668 13.906-41.371 35.363-48.461 58.633-6.7578 22.383-4.9766 48.223 11.855 65.746 18.531 19.242 50.023 22.227 67.902 0.69141h-1.4414l-0.003906 0.003906c-5.3906-0.13281-10.609-1.9375-14.926-5.1719-4.3164-3.2305-7.5156-7.7305-9.1562-12.867-2.625-9-0.26172-18.715 6.2031-25.504 3.9102-4.2227 8.8672-7.3359 14.371-9.0273 5.5-1.6953 11.352-1.9062 16.961-0.61328 19.32 4.168 30.738 20.723 34.176 39.512 9.0078 49.191-23.254 88.902-68.395 105.91-27.66 10.492-59.367 12.684-85.07 5.293v72.109h500.34v-59.977c-21.336-0.27734-34.117-3.1992-54.172-10.688zm-146.86-137.78c39.293 49.016 81.234 101.29 150.8 127.27 21.395 7.9023 33.07 9.9766 55.871 9.9766h-0.003907c1.4961 0 2.9258 0.59375 3.9844 1.6484 1.0547 1.0586 1.6484 2.4883 1.6484 3.9844v71.121c-0.011719 3.1055-2.5273 5.6172-5.6328 5.6289h-511.46c-3.1055-0.011718-5.6211-2.5234-5.6328-5.6289v-85.543c0.003906-1.8516 0.91406-3.5781 2.4375-4.6289 1.5195-1.0469 3.4609-1.2812 5.1875-0.62891 1.9766 0.73047 3.7539 1.3633 5.4531 1.9766 23.707 7.1914 53.223 5.2148 79.301-4.6445 39.926-15.094 69.324-49.586 61.242-93.367-2.5898-14.105-10.688-27.262-25.465-30.445v0.003906c-7.5-1.7852-15.383 0.5625-20.684 6.1641-13.672 15.113 6.9531 32.125 19.758 22.027 1.9805-1.7188 4.8945-1.8359 7.0039-0.27734 2.1133 1.5586 2.8633 4.375 1.8047 6.7773-17.148 39.355-64.859 44.117-93.445 14.48-19.758-20.547-22.543-50.359-14.598-76.75 7.7617-25.98 27.34-49.688 53.438-65.098 27.848-16.543 61.027-21.645 92.559-14.223 60.234 14.285 99.746 64.402 136.43 110.18z" fill-rule="evenodd"/>
  <path d="m94.281 413.35h511.46c1.4961 0 2.9258 0.59375 3.9844 1.6484 1.0547 1.0586 1.6484 2.4883 1.6484 3.9844v43.859-0.003906c-0.011719 3.1055-2.5273 5.6211-5.6328 5.6328h-511.46c-3.1055-0.011718-5.6211-2.5273-5.6328-5.6328v-43.859 0.003906c0-3.1133 2.5234-5.6328 5.6328-5.6328zm505.75 11.262h-500.12v32.598h500.2z" fill-rule="evenodd"/>
  <use x="70" y="589.632812" xlink:href="#u"/>
  <use x="77.25" y="589.632812" xlink:href="#d"/>
  <use x="82.121094" y="589.632812" xlink:href="#a"/>
  <use x="88.820312" y="589.632812" xlink:href="#c"/>
  <use x="95.484375" y="589.632812" xlink:href="#b"/>
  <use x="100.207031" y="589.632812" xlink:href="#a"/>
  <use x="106.90625" y="589.632812" xlink:href="#m"/>
  <use x="117.417969" y="589.632812" xlink:href="#l"/>
  <use x="124.488281" y="589.632812" xlink:href="#k"/>
  <use x="134.367188" y="589.632812" xlink:href="#j"/>
  <use x="142.011719" y="589.632812" xlink:href="#i"/>
  <use x="149.082031" y="589.632812" xlink:href="#h"/>
  <use x="156.113281" y="589.632812" xlink:href="#g"/>
  <use x="163.144531" y="589.632812" xlink:href="#i"/>
  <use x="173.65625" y="589.632812" xlink:href="#t"/>
  <use x="181.261719" y="589.632812" xlink:href="#c"/>
  <use x="187.925781" y="589.632812" xlink:href="#f"/>
  <use x="198.21875" y="589.632812" xlink:href="#c"/>
  <use x="70" y="599.511719" xlink:href="#s"/>
  <use x="74.296875" y="599.511719" xlink:href="#d"/>
  <use x="79.167969" y="599.511719" xlink:href="#e"/>
  <use x="85.957031" y="599.511719" xlink:href="#f"/>
  <use x="99.6875" y="599.511719" xlink:href="#b"/>
  <use x="104.410156" y="599.511719" xlink:href="#r"/>
  <use x="111.441406" y="599.511719" xlink:href="#a"/>
  <use x="121.578125" y="599.511719" xlink:href="#q"/>
  <use x="129.847656" y="599.511719" xlink:href="#e"/>
  <use x="136.632812" y="599.511719" xlink:href="#h"/>
  <use x="143.664062" y="599.511719" xlink:href="#g"/>
  <use x="154.136719" y="599.511719" xlink:href="#p"/>
  <use x="161.375" y="599.511719" xlink:href="#d"/>
  <use x="166.246094" y="599.511719" xlink:href="#e"/>
  <use x="173.035156" y="599.511719" xlink:href="#o"/>
  <use x="176.417969" y="599.511719" xlink:href="#a"/>
  <use x="183.117188" y="599.511719" xlink:href="#n"/>
  <use x="188.972656" y="599.511719" xlink:href="#b"/>
 </g>
</svg>
