<svg width="32" height="32" viewBox="0 0 32 32" fill="none" xmlns="http://www.w3.org/2000/svg">
<path d="M15.5941 13.9469C15.7273 13.9548 15.8601 13.9587 15.9925 13.9587V13.9585C17.6826 13.9685 19.313 13.3344 20.5521 12.1851C21.7247 11.1033 22.3942 9.58243 22.3999 7.98709C22.4001 7.82781 22.3057 7.68388 22.1598 7.62031C22.0139 7.55656 21.8442 7.58567 21.7276 7.69406C20.2055 9.10691 18.4373 9.64103 16.8778 9.16208H16.878C16.3226 9.00601 15.8189 8.70494 15.4183 8.28995C15.0178 7.87495 14.7349 7.36085 14.5985 6.8003C14.2899 5.45031 14.8842 3.9976 16.2719 2.70887H16.272C16.3924 2.59691 16.432 2.4228 16.372 2.26958C16.3119 2.11655 16.1642 2.01601 15.9997 2.01601C14.1785 2.00405 12.4329 2.74442 11.1759 4.06246C10.0752 5.2162 9.50828 6.77798 9.61256 8.36906C9.81273 11.3641 12.3844 13.762 15.5938 13.9471L15.5941 13.9469ZM11.7605 4.60886V4.60868C12.6212 3.70189 13.7553 3.10207 14.9893 2.90047C13.5746 4.61174 13.6302 6.15208 13.8189 6.97814V6.97832C13.9857 7.67601 14.3351 8.31688 14.8312 8.83492C15.3275 9.35295 15.9526 9.72973 16.6425 9.92634C18.2205 10.4119 19.9546 10.0405 21.5115 8.9076H21.5117C21.3047 9.94244 20.7769 10.8858 20.0027 11.6033C18.8203 12.6921 17.2442 13.2501 15.64 13.1482C12.8324 12.986 10.5845 10.9087 10.4108 8.31569C10.3224 6.9455 10.8119 5.60104 11.7604 4.60854L11.7605 4.60886Z" fill="#1C3346"/>
<path d="M6.47721 12.8128C6.48632 12.8251 6.50078 12.8303 6.51114 12.8413C6.52668 12.8624 6.54418 12.8817 6.56382 12.8992C6.57668 12.9067 6.58989 12.9135 6.60364 12.9196C6.61578 12.9267 6.62828 12.9331 6.64132 12.9388C6.69096 12.9622 6.74489 12.9749 6.79971 12.9765H6.80007C6.84221 12.9765 6.88417 12.9699 6.92435 12.9565C6.9365 12.9526 6.94596 12.9446 6.95739 12.9396C6.97043 12.9338 6.98328 12.9272 6.99561 12.9199C7.04382 12.894 7.08596 12.8585 7.11971 12.8154L7.12292 12.8128L8.72292 10.6272C8.85346 10.449 8.81471 10.1986 8.63632 10.0681C8.45811 9.93759 8.20775 9.97634 8.07723 10.1546L7.20007 11.3528V6.7999C7.20007 6.57901 7.02096 6.3999 6.80007 6.3999C6.57918 6.3999 6.40007 6.57901 6.40007 6.7999V11.353L5.5229 10.1546C5.39236 9.97634 5.14201 9.93759 4.96382 10.0681C4.78543 10.1987 4.74667 10.449 4.87721 10.6272L6.47721 12.8128Z" fill="#1C3346"/>
<path d="M23.9264 9.27997L24.7997 8.04532V12.4C24.7997 12.6209 24.9789 12.8 25.1997 12.8C25.4206 12.8 25.5997 12.6209 25.5997 12.4V8.04513L26.4731 9.27997C26.6006 9.46033 26.8503 9.50318 27.0306 9.37569C27.1172 9.31462 27.176 9.2214 27.1938 9.11693C27.2119 9.01229 27.1876 8.90497 27.1263 8.81836L25.5263 6.55624L25.5245 6.55445H25.5243C25.4958 6.51552 25.4604 6.48213 25.4199 6.4557C25.3868 6.43909 25.3538 6.42249 25.3208 6.40588C25.3104 6.40267 25.2997 6.40356 25.2892 6.40124C25.2722 6.39749 25.2551 6.39499 25.2379 6.39356C25.2074 6.3907 25.1767 6.39142 25.1465 6.3957C25.1297 6.39731 25.1131 6.40017 25.0967 6.4041C25.0585 6.41445 25.0218 6.4307 24.9883 6.45195C24.982 6.45588 24.9747 6.45624 24.9686 6.46053L24.966 6.46338V6.46356C24.9301 6.4891 24.8986 6.52035 24.8731 6.55624L23.2731 8.81836C23.1456 8.99872 23.1885 9.24818 23.3688 9.37567C23.5492 9.50317 23.7988 9.46049 23.9263 9.28013L23.9264 9.27997Z" fill="#1C3346"/>
<path d="M27.3522 15.2178C27.2024 15.156 27.0301 15.1908 26.916 15.306C26.2515 15.9789 25.3455 16.3576 24.3999 16.3576C23.4543 16.3576 22.5483 15.9789 21.8838 15.306C21.7249 15.1544 21.4749 15.1544 21.316 15.306C20.6515 15.9789 19.7455 16.3576 18.7999 16.3576C17.8543 16.3576 16.9483 15.9789 16.2838 15.306C16.1249 15.1544 15.8749 15.1544 15.716 15.306C15.0515 15.9789 14.1455 16.3576 13.1999 16.3576C12.2543 16.3576 11.3483 15.9789 10.6838 15.306C10.5249 15.1544 10.2749 15.1544 10.116 15.306C9.45151 15.9789 8.54546 16.3576 7.5999 16.3576C6.65435 16.3576 5.74829 15.9789 5.08383 15.306C4.96973 15.1909 4.79741 15.156 4.64758 15.2178C4.49758 15.2794 4.3999 15.4255 4.3999 15.5876V22.0119C4.3999 22.1172 4.44133 22.2183 4.51544 22.2931C5.28188 23.0717 6.31452 23.5317 7.40595 23.5806C8.49738 23.6295 9.56686 23.2636 10.3999 22.5567C11.1818 23.2205 12.1741 23.5849 13.1999 23.5849C14.2256 23.5849 15.2179 23.2204 15.9999 22.5567C16.7818 23.2205 17.7741 23.5849 18.7999 23.5849C19.8256 23.5849 20.8179 23.2204 21.5999 22.5567C22.4329 23.2637 23.5024 23.6294 24.5938 23.5806C25.6852 23.5317 26.7179 23.0717 27.4843 22.2931C27.5584 22.2183 27.5998 22.1172 27.5998 22.0119V15.5876C27.5998 15.4257 27.502 15.2796 27.3522 15.2178H27.3522ZM7.59999 17.1577C8.62573 17.1598 9.61855 16.796 10.4 16.1318C11.1827 16.7941 12.1746 17.1577 13.2 17.1577C14.2254 17.1577 15.2173 16.7941 16 16.1318C16.7827 16.7941 17.7746 17.1577 18.8 17.1577C19.8254 17.1577 20.8173 16.7941 21.6 16.1318C22.3172 16.7385 23.212 17.0959 24.1496 17.1503C25.0875 17.2048 26.0175 16.9532 26.8 16.4334V18.6082C26.128 19.234 25.2386 19.573 24.3205 19.5532C23.4025 19.5334 22.5284 19.1564 21.8839 18.5021C21.8796 18.4976 21.8739 18.4957 21.8693 18.4916H21.8695C21.8498 18.4744 21.8287 18.4591 21.8061 18.446C21.7977 18.4412 21.79 18.4353 21.7814 18.4312C21.7712 18.426 21.763 18.4182 21.7523 18.4139C21.6025 18.3521 21.4302 18.3869 21.3161 18.5021C20.6518 19.1752 19.7457 19.5541 18.8 19.5541C17.8544 19.5541 16.9482 19.1752 16.2839 18.5021C16.2796 18.4976 16.2739 18.4957 16.2693 18.4916H16.2695C16.2498 18.4744 16.2288 18.4591 16.2061 18.446C16.1977 18.4412 16.19 18.4353 16.1814 18.4312C16.1713 18.426 16.163 18.4182 16.1523 18.4139V18.4137C16.0025 18.3521 15.8302 18.3869 15.7161 18.5021C15.0518 19.1752 14.1457 19.5541 13.2 19.5541C12.2545 19.5541 11.3482 19.1752 10.6839 18.5021C10.6796 18.4976 10.6739 18.4957 10.6693 18.4916H10.6695C10.6498 18.4743 10.6288 18.4591 10.6061 18.446C10.5977 18.4412 10.59 18.4353 10.5814 18.4312C10.5713 18.426 10.563 18.4182 10.5523 18.4139V18.4137C10.4025 18.3521 10.2302 18.3869 10.1161 18.5021C9.47178 19.1562 8.59768 19.5334 7.67964 19.5532C6.76161 19.573 5.87196 19.2341 5.20001 18.6082V16.4334C5.91036 16.9076 6.74588 17.1596 7.60001 17.1577H7.59999ZM26.8 21.8425C26.1271 22.4673 25.2373 22.8052 24.3194 22.7843C23.4016 22.7634 22.528 22.3855 21.8844 21.7309C21.8092 21.6548 21.7067 21.6121 21.6 21.6121C21.4932 21.6121 21.3907 21.6548 21.3155 21.7309C20.6523 22.4053 19.7458 22.7851 18.8 22.7851C17.8541 22.7851 16.9476 22.4053 16.2845 21.7309C16.1253 21.5785 15.8746 21.5785 15.7155 21.7309C15.0523 22.4053 14.1459 22.7851 13.2 22.7851C12.2541 22.7851 11.3477 22.4053 10.6845 21.7309C10.5254 21.5785 10.2747 21.5785 10.1156 21.7309C9.47202 22.3855 8.59842 22.7634 7.68057 22.7843C6.76272 22.8052 5.87289 22.4673 5.20002 21.8425V19.6617C5.30323 19.7307 5.40966 19.7934 5.5177 19.8528C5.5477 19.8692 5.57841 19.8842 5.60877 19.9C5.69502 19.9446 5.78234 19.9864 5.87109 20.0253C5.9052 20.0401 5.93895 20.0551 5.97342 20.0691C6.0836 20.1137 6.19538 20.1548 6.30895 20.1901C6.31734 20.1928 6.32538 20.196 6.33359 20.1987C6.45538 20.2358 6.57948 20.266 6.70466 20.2923C6.7402 20.2998 6.77609 20.3057 6.81181 20.3121C6.90627 20.3294 7.00163 20.3437 7.0977 20.3548C7.13538 20.3591 7.1727 20.3639 7.21056 20.3673C7.33949 20.3787 7.46895 20.3864 7.59985 20.3864C7.73788 20.3864 7.87467 20.3789 8.01038 20.3662C8.05538 20.3619 8.09949 20.3541 8.14413 20.3485C8.23431 20.3373 8.32431 20.3253 8.41324 20.3083C8.46556 20.2983 8.51681 20.2855 8.56859 20.2737C8.6486 20.2555 8.72824 20.2364 8.80681 20.2137C8.86056 20.1982 8.91359 20.1805 8.96663 20.163C9.04145 20.1382 9.11574 20.1117 9.18895 20.0828C9.24199 20.0619 9.29467 20.04 9.34681 20.0169C9.41859 19.9853 9.48913 19.9512 9.55913 19.9157C9.60967 19.89 9.66002 19.8642 9.70949 19.8366C9.78002 19.7971 9.84895 19.7542 9.91735 19.7107C9.96306 19.6816 10.0093 19.6535 10.0541 19.6226C10.0681 19.613 10.0829 19.605 10.0966 19.5953C10.1561 19.5533 10.2123 19.5062 10.2698 19.461C10.3061 19.4325 10.3438 19.406 10.3793 19.3762C10.3859 19.3707 10.3931 19.366 10.3997 19.3605C10.4063 19.366 10.4134 19.3707 10.42 19.3762C10.4556 19.406 10.4931 19.4325 10.5295 19.461C10.587 19.5062 10.6434 19.5533 10.7027 19.5953C10.7165 19.6051 10.7313 19.6132 10.7452 19.6226C10.79 19.6535 10.8363 19.6816 10.882 19.7107C10.9506 19.7542 11.0193 19.7969 11.0898 19.8366C11.1395 19.8642 11.1898 19.89 11.2402 19.9157C11.3102 19.9512 11.3807 19.9853 11.4525 20.0169C11.5047 20.04 11.5573 20.0619 11.6104 20.0828C11.6838 20.1117 11.7579 20.1382 11.8327 20.163C11.8857 20.1807 11.9388 20.1982 11.9925 20.2137C12.0711 20.2364 12.1507 20.2555 12.2307 20.2737C12.2825 20.2855 12.334 20.2985 12.3861 20.3083C12.475 20.3251 12.5648 20.3371 12.6552 20.3485C12.6998 20.3541 12.7439 20.3619 12.789 20.3662C12.9247 20.3789 13.0615 20.3864 13.1995 20.3864C13.3375 20.3864 13.4743 20.3789 13.61 20.3662C13.655 20.3619 13.6991 20.3541 13.7438 20.3485C13.834 20.3373 13.924 20.3253 14.0129 20.3083C14.0652 20.2983 14.1165 20.2855 14.1682 20.2737C14.2482 20.2555 14.3279 20.2364 14.4065 20.2137C14.4602 20.1982 14.5132 20.1805 14.5663 20.163C14.6411 20.1382 14.7154 20.1117 14.7886 20.0828C14.8416 20.0619 14.8943 20.04 14.9465 20.0169C15.0182 19.9853 15.0888 19.9512 15.1588 19.9157C15.2093 19.89 15.2597 19.8642 15.3091 19.8366C15.3797 19.7971 15.4486 19.7542 15.517 19.7107C15.5627 19.6816 15.609 19.6535 15.6538 19.6226C15.6677 19.613 15.6825 19.605 15.6963 19.5953C15.7557 19.5533 15.812 19.5062 15.8695 19.461C15.9057 19.4325 15.9434 19.406 15.979 19.3762C15.9856 19.3707 15.9927 19.366 15.9993 19.3605C16.0059 19.366 16.0131 19.3707 16.0197 19.3762C16.0552 19.406 16.0927 19.4325 16.1291 19.461C16.1866 19.5062 16.2431 19.5533 16.3023 19.5953C16.3161 19.6051 16.3309 19.6132 16.3448 19.6226C16.3897 19.6535 16.4359 19.6816 16.4816 19.7107C16.5502 19.7542 16.619 19.7969 16.6895 19.8366C16.7391 19.8642 16.7895 19.89 16.8398 19.9157C16.9098 19.9512 16.9804 19.9853 17.0522 20.0169C17.1043 20.04 17.157 20.0619 17.21 20.0828C17.2834 20.1117 17.3575 20.1382 17.4323 20.163C17.4854 20.1807 17.5384 20.1982 17.5922 20.2137C17.6707 20.2364 17.7504 20.2555 17.8304 20.2737C17.8822 20.2855 17.9336 20.2985 17.9857 20.3083C18.0747 20.3251 18.1645 20.3371 18.2548 20.3485C18.2995 20.3541 18.3436 20.3619 18.3886 20.3662C18.5243 20.3789 18.6611 20.3864 18.7991 20.3864C18.9372 20.3864 19.074 20.3789 19.2097 20.3662C19.2547 20.3619 19.2988 20.3541 19.3434 20.3485C19.4336 20.3373 19.5236 20.3253 19.6125 20.3083C19.6648 20.2983 19.7161 20.2855 19.7679 20.2737C19.8479 20.2555 19.9275 20.2364 20.0061 20.2137C20.0598 20.1982 20.1129 20.1805 20.1659 20.163C20.2407 20.1382 20.315 20.1117 20.3882 20.0828C20.4413 20.0619 20.494 20.04 20.5461 20.0169C20.6179 19.9853 20.6884 19.9512 20.7584 19.9157C20.809 19.89 20.8593 19.8642 20.9088 19.8366C20.9793 19.7971 21.0482 19.7542 21.1166 19.7107C21.1623 19.6816 21.2086 19.6535 21.2534 19.6226C21.2673 19.613 21.2822 19.605 21.2959 19.5953C21.3554 19.5533 21.4116 19.5062 21.4691 19.461C21.5054 19.4325 21.5431 19.406 21.5786 19.3762C21.5852 19.3707 21.5923 19.366 21.599 19.3605C21.6056 19.366 21.6127 19.3707 21.6193 19.3762C21.6548 19.406 21.6924 19.4325 21.7288 19.461C21.7863 19.5062 21.8427 19.5533 21.902 19.5953C21.9157 19.6051 21.9306 19.6132 21.9445 19.6226C21.9893 19.6535 22.0356 19.6816 22.0813 19.7107C22.1498 19.7542 22.2186 19.7969 22.2891 19.8366C22.3388 19.8642 22.3891 19.89 22.4395 19.9157C22.5095 19.9512 22.58 19.9853 22.6518 20.0169C22.704 20.04 22.7566 20.0619 22.8097 20.0828C22.8831 20.1117 22.9572 20.1382 23.032 20.163C23.085 20.1807 23.1381 20.1982 23.1918 20.2137C23.2704 20.2364 23.35 20.2555 23.43 20.2737C23.4818 20.2855 23.5332 20.2985 23.5854 20.3083C23.6743 20.3251 23.7641 20.3371 23.8545 20.3485C23.8991 20.3541 23.9432 20.3619 23.9882 20.3662C24.124 20.3789 24.2607 20.3864 24.3988 20.3864C24.5297 20.3864 24.6593 20.3787 24.7881 20.3673C24.8259 20.3639 24.8632 20.3591 24.9009 20.3548C24.997 20.3437 25.0924 20.3296 25.1868 20.3121C25.2225 20.3055 25.2584 20.2996 25.294 20.2923C25.4191 20.266 25.5432 20.2358 25.665 20.1987C25.6734 20.1962 25.6815 20.1928 25.6897 20.1901C25.8034 20.1548 25.915 20.1137 26.0252 20.0691C26.0597 20.0551 26.0934 20.0401 26.1275 20.0253C26.2163 19.9866 26.3038 19.9448 26.3899 19.9C26.4202 19.8842 26.4509 19.8692 26.4809 19.8528C26.589 19.7934 26.6956 19.7307 26.7986 19.6617L26.8 21.8425Z" fill="#1C3346"/>
</svg>
