<svg width="32" height="32" viewBox="0 0 32 32" fill="none" xmlns="http://www.w3.org/2000/svg">
<g clip-path="url(#clip0_202_2816)">
<path d="M22 30H17C15.1441 29.9979 13.3648 29.2598 12.0525 27.9475C10.7402 26.6352 10.0021 24.8559 10 23C10.0254 21.2279 10.7536 19.5385 12.0244 18.3033C11.3718 18.1015 10.6924 17.9992 10.0093 18C5.0425 18.0466 4 24.5513 4 30H2C2 18.4907 6.3452 16.0342 9.9907 16C11.5499 16.0206 13.083 16.403 14.4692 17.117C14.624 17.1994 14.7545 17.321 14.8474 17.4697C14.9404 17.6184 14.9926 17.789 14.9989 17.9642C15.0051 18.1395 14.9651 18.3133 14.883 18.4683C14.8008 18.6232 14.6794 18.7538 14.5308 18.847C13.5716 19.3726 12.8169 20.2053 12.3879 21.2114C11.9589 22.2175 11.8806 23.3386 12.1655 24.3946C12.4504 25.4507 13.0819 26.3803 13.9587 27.0341C14.8355 27.688 15.9066 28.0282 17 28H22V30Z" fill="#1C3346"/>
<path d="M19 8H17V16H19V8Z" fill="#1C3346"/>
<path d="M28 5.4141L26.5859 4L24.3242 6.2617C22.8065 5.01548 20.954 4.24622 19 4.0508V2H17V4.0508C14.5346 4.30155 12.2498 5.45756 10.5874 7.2953C8.92502 9.13303 8.00312 11.5219 8 14H10C10 12.4177 10.4692 10.871 11.3482 9.55544C12.2273 8.23984 13.4767 7.21447 14.9385 6.60896C16.4003 6.00346 18.0089 5.84504 19.5607 6.15372C21.1126 6.4624 22.538 7.22433 23.6569 8.34315C24.7757 9.46197 25.5376 10.8874 25.8463 12.4393C26.155 13.9911 25.9965 15.5997 25.391 17.0615C24.7855 18.5233 23.7602 19.7727 22.4446 20.6518C21.129 21.5308 19.5823 22 18 22V24C19.8927 24.0014 21.7468 23.4652 23.3466 22.4539C24.9464 21.4426 26.2262 19.9978 27.0369 18.2876C27.8476 16.5774 28.1559 14.6721 27.926 12.7934C27.6962 10.9148 26.9375 9.14008 25.7383 7.6758L28 5.4141Z" fill="#1C3346"/>
</g>
<defs>
<clipPath id="clip0_202_2816">
<rect width="32" height="32" fill="white"/>
</clipPath>
</defs>
</svg>
