<svg width="33" height="39" viewBox="0 0 33 39" fill="none" xmlns="http://www.w3.org/2000/svg">
<path d="M32.5 16C32.5 24.546 25.3512 31.5 16.5 31.5C7.64883 31.5 0.5 24.546 0.5 16C0.5 7.45398 7.64883 0.5 16.5 0.5C25.3512 0.5 32.5 7.45398 32.5 16Z" stroke="#905B0C"/>
<path d="M19.1154 9.75015C20.1987 9.75015 21.0769 8.91066 21.0769 7.87507C21.0769 6.83949 20.1987 6 19.1154 6C18.032 6 17.1538 6.83949 17.1538 7.87507C17.1538 8.91066 18.032 9.75015 19.1154 9.75015ZM12.646 18.4017L12.0412 19.7501H9.30769C8.5856 19.7501 8 20.3099 8 21.0002C8 21.6905 8.5856 22.2502 9.30769 22.2502H12.4727C13.2594 22.2502 13.9676 21.8034 14.2753 21.1139L14.6345 20.3123L14.1985 20.0662C13.4907 19.6665 12.97 19.0751 12.646 18.4017ZM23.6923 14.75H21.893L20.8281 12.6698C20.3172 11.6717 19.3794 10.942 18.3034 10.6799L15.3987 9.85406C14.2422 9.58842 13.0379 9.83257 12.0951 10.5236L10.474 11.7116C9.90065 12.1315 9.79195 12.9159 10.2321 13.464C10.6722 14.012 11.4924 14.1148 12.0653 13.6952L13.6872 12.5073C14.0007 12.2772 14.3999 12.1948 14.7199 12.2674L15.3206 12.4381L13.7898 15.8519C13.2741 17.0036 13.7363 18.3524 14.8646 18.9892L18.3373 20.949L17.2147 24.3761C16.999 25.0347 17.3827 25.7359 18.0717 25.9422C18.202 25.9812 18.3336 26 18.4632 26C19.0194 26 19.5351 25.6574 19.7104 25.123L21.0034 21.1752C21.2449 20.3638 20.8853 19.4923 20.119 19.0505L17.6164 17.6387L18.8959 14.5808L19.7243 16.1992C20.0512 16.8375 20.7426 17.2497 21.486 17.2497H23.6923C24.4144 17.2497 25 16.6899 25 15.9996C25 15.3093 24.4144 14.75 23.6923 14.75Z" fill="#905B0C"/>
<path d="M19.1154 9.75015C20.1987 9.75015 21.0769 8.91066 21.0769 7.87507C21.0769 6.83949 20.1987 6 19.1154 6C18.032 6 17.1538 6.83949 17.1538 7.87507C17.1538 8.91066 18.032 9.75015 19.1154 9.75015ZM12.646 18.4017L12.0412 19.7501H9.30769C8.5856 19.7501 8 20.3099 8 21.0002C8 21.6905 8.5856 22.2502 9.30769 22.2502H12.4727C13.2594 22.2502 13.9676 21.8034 14.2753 21.1139L14.6345 20.3123L14.1985 20.0662C13.4907 19.6665 12.97 19.0751 12.646 18.4017ZM23.6923 14.75H21.893L20.8281 12.6698C20.3172 11.6717 19.3794 10.942 18.3034 10.6799L15.3987 9.85406C14.2422 9.58842 13.0379 9.83257 12.0951 10.5236L10.474 11.7116C9.90065 12.1315 9.79195 12.9159 10.2321 13.464C10.6722 14.012 11.4924 14.1148 12.0653 13.6952L13.6872 12.5073C14.0007 12.2772 14.3999 12.1948 14.7199 12.2674L15.3206 12.4381L13.7898 15.8519C13.2741 17.0036 13.7363 18.3524 14.8646 18.9892L18.3373 20.949L17.2147 24.3761C16.999 25.0347 17.3827 25.7359 18.0717 25.9422C18.202 25.9812 18.3336 26 18.4632 26C19.0194 26 19.5351 25.6574 19.7104 25.123L21.0034 21.1752C21.2449 20.3638 20.8853 19.4923 20.119 19.0505L17.6164 17.6387L18.8959 14.5808L19.7243 16.1992C20.0512 16.8375 20.7426 17.2497 21.486 17.2497H23.6923C24.4144 17.2497 25 16.6899 25 15.9996C25 15.3093 24.4144 14.75 23.6923 14.75Z" fill="#905B0C"/>
<path d="M16.5 39L7.40673 29.25L17 32L25.5933 29.25L16.5 39Z" fill="#905B0C"/>
</svg>
