<svg width="14" height="28" viewBox="0 0 14 16" fill="none" xmlns="http://www.w3.org/2000/svg">
<path d="M9.15385 3.00012C10.046 3.00012 10.7692 2.32853 10.7692 1.50006C10.7692 0.671589 10.046 0 9.15385 0C8.26168 0 7.53846 0.671589 7.53846 1.50006C7.53846 2.32853 8.26168 3.00012 9.15385 3.00012ZM3.82611 9.92133L3.32803 11.0001H1.07692C0.48226 11.0001 0 11.4479 0 12.0002C0 12.5524 0.48226 13.0002 1.07692 13.0002H3.68341C4.33125 13.0002 4.91447 12.6427 5.16788 12.0911L5.4637 11.4498L5.10462 11.2529C4.52173 10.9332 4.09298 10.4601 3.82611 9.92133ZM12.9231 6.99996H11.4413L10.5643 5.33583C10.1436 4.53736 9.37125 3.95359 8.48514 3.7439L6.09303 3.08325C5.14063 2.87074 4.14885 3.06606 3.37245 3.61889L2.0374 4.56924C1.56524 4.90519 1.47572 5.53272 1.83817 5.97117C2.20063 6.40963 2.87606 6.49182 3.34788 6.15618L4.68361 5.20583C4.94173 5.02176 5.27053 4.95582 5.53404 5.01395L6.02875 5.15051L4.76808 7.88156C4.34337 8.80284 4.72399 9.88195 5.65317 10.3913L8.51308 11.9592L7.58861 14.7009C7.41091 15.2278 7.72692 15.7887 8.29433 15.9537C8.40168 15.985 8.51005 16 8.61673 16C9.07476 16 9.49947 15.7259 9.64385 15.2984L10.7087 12.1402C10.9075 11.4911 10.6114 10.7939 9.98038 10.4404L7.91942 9.31099L8.97313 6.86464L9.65529 8.15938C9.92452 8.67003 10.4939 8.99973 11.1061 8.99973H12.9231C13.5177 8.99973 14 8.5519 14 7.99969C14 7.44748 13.5177 6.99996 12.9231 6.99996Z" fill="#905b0c"/>
</svg>
