<svg width="15" height="16" viewBox="0 0 15 16" fill="none" xmlns="http://www.w3.org/2000/svg">
<g style="mix-blend-mode:multiply">
<path d="M9.5512 3.00012C10.4009 3.00012 11.0897 2.32853 11.0897 1.50006C11.0897 0.671589 10.4009 0 9.5512 0C8.70152 0 8.01274 0.671589 8.01274 1.50006C8.01274 2.32853 8.70152 3.00012 9.5512 3.00012ZM4.47716 9.92133L4.0028 11.0001H1.85889C1.29255 11.0001 0.833252 11.4479 0.833252 12.0002C0.833252 12.5524 1.29255 13.0002 1.85889 13.0002H4.34126C4.95825 13.0002 5.5137 12.6427 5.75505 12.0911L6.03678 11.4498L5.69479 11.2529C5.13966 10.9332 4.73133 10.4601 4.47716 9.92133ZM13.1409 6.99996H11.7297L10.8945 5.33583C10.4938 4.53737 9.75825 3.95359 8.91434 3.7439L6.63614 3.08325C5.72909 2.87074 4.78453 3.06606 4.04511 3.61889L2.77364 4.56924C2.32396 4.90519 2.2387 5.53272 2.58389 5.97117C2.92909 6.40963 3.57235 6.49182 4.02171 6.15618L5.29383 5.20583C5.53966 5.02176 5.8528 4.95582 6.10376 5.01395L6.57492 5.15051L5.37428 7.88156C4.96979 8.80284 5.33229 9.88195 6.21723 10.3913L8.94094 11.9592L8.0605 14.7009C7.89126 15.2278 8.19223 15.7887 8.73261 15.9537C8.83485 15.985 8.93806 16 9.03966 16C9.47588 16 9.88037 15.7259 10.0179 15.2984L11.032 12.1402C11.2214 11.4911 10.9393 10.7939 10.3384 10.4404L8.37556 9.31099L9.37908 6.86464L10.0288 8.15938C10.2852 8.67003 10.8275 8.99973 11.4105 8.99973H13.1409C13.7073 8.99973 14.1666 8.5519 14.1666 7.99969C14.1666 7.44748 13.7073 6.99996 13.1409 6.99996Z" fill="#1C3346"/>
</g>
</svg>
