<svg width="48" height="48" viewBox="0 0 48 48" fill="none" xmlns="http://www.w3.org/2000/svg">
<path d="M43.4311 41.3674C43.2088 41.1315 42.968 41.0057 42.7136 40.9957C42.2864 40.9715 41.9517 41.2751 41.627 41.5638C41.4032 41.7617 41.1733 41.9671 40.9518 42.03C40.3077 42.2134 39.5091 42.2007 39.0332 42.1925L38.8053 42.1899C38.667 42.1899 38.5452 42.2085 38.4347 42.2268C38.2169 42.2629 38.2189 42.261 38.137 42.1099C37.9035 41.6791 37.194 40.0738 37.0141 39.3509C36.9407 39.0559 36.7116 38.5097 36.4471 37.8762C36.0123 36.8378 35.471 35.5449 35.4153 34.8983C35.3875 34.5762 35.3927 34.2763 35.3984 33.9865C35.4052 33.5464 35.4121 33.1312 35.2943 32.7517C35.1854 32.4034 35.0064 32.2275 34.7986 32.0236C34.6135 31.8428 34.3836 31.6166 34.0956 31.1653C33.781 30.672 33.3232 29.7902 32.8792 28.9375C32.4569 28.1242 32.0576 27.3553 31.7882 26.9311C31.2454 26.0766 30.796 25.4129 29.9595 24.6446C29.7341 24.4381 29.5865 24.3176 29.4901 24.2383C29.459 24.2126 29.434 24.1937 29.415 24.1777C29.415 24.1717 29.4154 24.1658 29.4154 24.1591C29.4171 24.0917 29.4199 23.9954 29.4078 23.8451C29.3767 23.4552 29.5469 23.101 29.7615 22.6524C29.8482 22.4719 29.9402 22.2811 30.0257 22.0727C30.3407 21.3067 30.3915 21.1154 30.4657 19.8744C30.4859 19.531 30.5 19.211 30.5113 18.9163C30.5403 18.2031 30.5629 17.6399 30.6702 17.3039C30.7622 17.0148 30.7593 16.6249 30.7569 16.2476C30.7553 16.0177 30.7541 15.7473 30.7831 15.5806C31.0142 16.0114 31.349 16.5962 31.6205 16.9106C32.0621 17.4237 32.4501 17.7127 32.6655 17.8125C32.6873 17.8232 32.7066 17.8344 32.7252 17.8448C32.8308 17.9055 32.9426 17.9583 33.1148 17.9583C33.2092 17.9583 33.3213 17.9423 33.46 17.9032C33.9279 17.7719 34.2139 17.5331 34.6079 17.1108L34.8761 16.8254C35.5819 16.0762 36.2898 15.3187 36.508 15.0102C36.6573 14.7997 37.0158 14.3562 37.3312 13.9659C37.5789 13.6593 37.8007 13.384 37.8858 13.2668C38.0976 12.9744 38.659 12.198 38.3214 11.5755C38.0201 11.0186 37.443 10.6224 37.0295 10.5186C36.9553 10.5 36.8948 10.4743 36.8371 10.4508C36.556 10.3363 36.3015 10.2663 35.8106 10.4929C35.2254 10.7626 34.9322 10.8984 34.7971 11.2712C34.66 11.6499 34.7027 12.0521 34.9092 12.3475C34.9741 12.4398 35.0443 12.5261 35.1105 12.6068C35.1774 12.689 35.2694 12.801 35.2815 12.8341C35.2911 12.935 35.204 13.2743 35.0984 13.3807C34.6422 13.8398 34.3199 14.137 34.1425 14.2654C34.017 14.355 33.9077 14.457 33.8101 14.5496C33.7617 14.595 33.7012 14.6527 33.6552 14.6876C33.5895 14.621 33.4637 14.4454 33.3725 14.0894C33.2342 13.5533 32.6336 12.7757 32.4473 12.5443C32.3722 11.7076 32.1936 11.173 31.7854 10.5636L31.7156 10.4594C31.3022 9.84106 30.9759 9.35258 30.5472 9.10371C30.3068 8.96345 30.0685 8.92625 29.8777 8.89686C29.703 8.8697 29.6006 8.8511 29.532 8.79231C29.3989 8.67698 29.34 7.97308 29.5921 7.62713C29.7256 7.38939 29.9491 7.13492 30.0378 7.11409C30.1181 7.10813 30.2354 7.12376 30.3512 7.13864C30.6436 7.17659 31.0477 7.23091 31.243 6.92323C31.3648 6.72978 31.399 6.35475 31.4374 5.80414C31.4495 5.62556 31.4587 5.4682 31.464 5.40941C31.4934 5.37853 31.6241 5.33575 31.6943 5.31306C31.8717 5.25539 32.1145 5.1754 32.1331 4.93693C32.1509 4.69176 31.9637 4.24568 31.5793 3.90232C31.4482 3.78512 31.4309 3.53698 31.414 3.29738C31.4011 3.1069 31.3873 2.91009 31.3127 2.74379L31.2619 2.62846C30.8808 1.75268 30.4282 0.824106 29.9579 0.575525C29.4501 0.306543 28.5898 0.0122559 27.9001 0.00110308C27.2225 -0.00782583 26.5502 0.0256574 25.6531 0.552467C24.5234 1.21506 24.379 2.30215 24.3608 2.62026C24.3572 2.6809 24.3487 2.71141 24.3499 2.71847C24.3221 2.72591 24.2592 2.73112 24.2124 2.73484C24.0365 2.74972 23.7961 2.76944 23.5525 2.935C22.8564 3.40898 22.1312 3.97114 22.0287 4.55897C21.9339 5.10177 21.8718 5.46041 22.1566 6.04112C22.305 6.34359 22.5502 6.61704 22.766 6.85886C22.9088 7.01883 23.0713 7.19964 23.1032 7.2908L23.1355 7.38158C23.1794 7.50584 23.2436 7.68553 23.2565 7.76403C23.1121 7.85667 22.7241 8.05422 22.4313 8.20341C21.9844 8.43072 21.5221 8.66585 21.2547 8.84182C20.9615 9.03453 20.4198 9.36825 19.933 9.66812C19.5199 9.92297 19.1465 10.1536 18.9932 10.2548L18.752 10.4126C18.2668 10.7288 17.4549 11.2586 17.0519 11.5871C16.3227 12.1812 15.6104 12.8033 15.6104 13.2992C15.6104 13.8796 16.9785 15.4039 17.2524 15.7037C17.571 16.0527 18.5083 16.8638 19.1283 17.4002L19.5554 17.7715C19.9769 18.1431 21.0517 19.421 21.4313 19.882C21.6297 20.1235 22.1262 20.5424 22.5218 20.7076C22.1241 21.3449 21.2908 22.8665 21.4768 24.1858C21.5651 24.8104 21.6994 25.2818 21.8926 25.6825C21.8446 25.7112 21.8023 25.748 21.7789 25.8005C21.7478 25.8678 21.0105 27.4527 20.7492 28.1756C20.6572 28.4312 20.5532 28.7608 20.4467 29.0994C20.2616 29.6864 20.0522 30.3524 19.9054 30.6009C19.6457 31.0388 19.0737 31.7755 18.8665 31.9455C18.7572 31.9272 18.5329 31.8696 18.3309 31.8197C17.4952 31.6084 16.0972 31.2539 15.1087 31.4261C13.8326 31.6471 12.5939 31.9674 11.8763 32.261C11.2439 32.5203 9.2026 32.7922 8.95707 32.7613C8.94819 32.7502 8.93407 32.7059 8.9252 32.6769C8.89455 32.5805 8.84776 32.4347 8.70821 32.313C8.56179 32.1854 8.27865 32.05 7.86282 31.858C7.71319 31.7888 7.57041 31.723 7.46312 31.6683C7.38488 31.6274 7.30058 31.5589 7.21104 31.4864C6.97469 31.2955 6.65081 31.0314 6.20998 31.1787C5.68605 31.3513 4.85602 32.3432 4.63134 32.8503C4.55028 33.0326 4.47001 33.187 4.40225 33.3153C4.276 33.5564 4.19252 33.716 4.20381 33.8738C4.20744 33.9214 4.21671 34.0512 4.49744 34.4262L3.76498 34.9482C3.73675 34.9679 3.71174 34.9936 3.69279 35.023C3.67544 35.0498 3.26324 35.686 3.18378 36.3232L3.14466 36.6231C3.06238 37.2451 2.95953 38.0193 3.0164 38.4881C3.05875 38.836 3.21806 39.6552 3.78595 39.7523C3.81418 39.7571 3.84322 39.7597 3.87388 39.7597C4.32682 39.7597 5.04115 39.2567 5.22504 38.9286C5.40775 38.6027 6.07324 37.6145 6.24022 37.4806C6.32331 37.414 6.45399 37.2897 6.6012 37.1476C6.82425 36.9333 7.16103 36.6085 7.31187 36.5341C7.39173 36.4951 7.5583 36.5185 7.70512 36.5401C7.88137 36.565 8.06287 36.5922 8.23953 36.5475C8.69288 36.4355 8.82477 36.1666 8.89051 35.7703C8.90342 35.6937 8.92681 35.5516 9.39065 35.5084L9.67056 35.479C10.1626 35.4251 11.183 35.3176 11.6376 35.3362C12.243 35.3648 16.2074 35.2979 16.5877 35.2882C17.112 35.2759 19.0137 35.2659 19.4013 35.3321C19.5505 35.3577 19.6804 35.3961 19.8042 35.4329C20.0563 35.5077 20.3164 35.5828 20.6472 35.546C21.1554 35.4872 22.0487 34.969 22.4488 34.5791C22.7542 34.2818 24.284 32.7487 24.5849 32.3327C24.7459 32.1103 25.0621 31.762 25.3412 31.4547C25.5174 31.2613 25.6864 31.0756 25.8119 30.9268C26.0454 30.65 26.3422 30.2047 26.5157 29.9375C28.5839 31.5719 31.0999 33.6397 31.5258 34.5579C31.8029 35.1543 31.8206 35.7488 31.8396 36.4378C31.8703 37.4884 31.9037 38.6789 32.9121 40.1451C34.2055 42.0262 35.4309 43.7409 35.8588 44.335C35.6426 44.521 35.4623 44.8257 35.6108 45.2354C35.7241 45.5479 36.0472 45.8626 36.3606 46.1666C36.5408 46.3422 36.8139 46.6078 36.8365 46.6941C36.8365 47.446 37.1454 47.9315 37.6633 47.9933C37.7037 47.9978 37.7472 48 37.7912 48C38.378 48 39.2476 47.587 39.7691 47.0457C40.0635 46.7402 40.1906 46.4616 40.2434 46.257C40.5657 46.2789 41.0686 46.2581 41.5506 46.0163C42.273 45.6531 42.9364 44.9399 43.4713 43.9545L43.506 43.8908C43.994 42.9916 44.3469 42.3428 43.431 41.3673L43.4311 41.3674ZM30.1714 16.2512C30.1738 16.5734 30.1758 16.9387 30.1084 17.1508C29.9802 17.5518 29.956 18.1449 29.9257 18.896C29.9136 19.1873 29.9007 19.5046 29.8806 19.8443C29.8217 20.8384 29.7818 21.1014 29.6019 21.5698C29.1622 21.3507 28.0296 20.8272 26.6971 20.5467C25.5124 20.2971 24.3888 20.2379 23.8088 20.2253C24.1339 19.9075 24.4965 19.518 24.5852 19.2003C24.7453 18.6292 24.7598 18.176 24.6279 17.855C24.5323 17.6213 24.3581 17.3717 24.1121 17.1879C24.0705 16.759 23.8963 15.6935 23.7096 14.5889C24.3666 14.5643 26.017 14.5122 27.4311 14.5472C28.7677 14.5803 29.8555 14.9445 30.3355 15.1328C30.3222 15.1607 30.3101 15.1856 30.2927 15.218C30.1649 15.4527 30.1677 15.8222 30.1713 16.2512L30.1714 16.2512ZM22.709 12.26C22.7767 12.6354 22.9353 13.5194 22.9998 13.907L23.0583 14.25C23.1587 14.843 23.3918 16.2099 23.4906 16.9268C23.4854 16.9264 23.4814 16.9245 23.4769 16.9242C23.2757 16.8985 23.0704 16.9007 22.8703 16.9019C22.6658 16.9045 22.4077 16.9056 22.3194 16.8602C22.1471 16.7713 21.3889 15.987 20.9703 15.4889C20.506 14.9357 20.1572 14.4572 20.0378 14.2094C19.9535 14.0327 19.8361 13.885 19.7329 13.754C19.6768 13.6837 19.5985 13.5844 19.5671 13.5219C19.6014 13.5081 19.6457 13.4914 19.6845 13.4776C19.8284 13.4244 20.0261 13.3519 20.2794 13.2191C20.5649 13.0691 20.7404 13.0085 20.9263 12.9438C21.1179 12.8775 21.3155 12.8098 21.614 12.6513C21.8568 12.523 22.0209 12.4787 22.2101 12.4274C22.3537 12.3876 22.5142 12.3422 22.709 12.2599L22.709 12.26ZM33.6899 15.2508C33.9045 15.2325 34.0622 15.0845 34.2288 14.9275C34.309 14.8512 34.3986 14.7664 34.5018 14.6923C34.7781 14.4944 35.2209 14.0576 35.5323 13.744C35.7872 13.4873 35.8856 12.9724 35.8647 12.7797C35.8461 12.6074 35.7223 12.456 35.5791 12.2804C35.5214 12.2093 35.4589 12.1338 35.4021 12.0527C35.2702 11.8667 35.2916 11.6148 35.3537 11.4422C35.4069 11.296 35.5287 11.2283 36.0728 10.9772C36.3555 10.8458 36.4265 10.8752 36.5996 10.9455C36.6818 10.979 36.769 11.014 36.8746 11.0404C37.159 11.1118 37.5825 11.4221 37.797 11.818C37.9201 12.0445 37.7853 12.4315 37.3981 12.9672C37.3159 13.0802 37.1009 13.3463 36.8617 13.6428C36.5403 14.0401 36.1765 14.4899 36.0175 14.715C35.803 15.0178 34.9124 15.9625 34.4349 16.4707L34.1643 16.7583C33.7892 17.1601 33.5931 17.3011 33.2898 17.3859C33.1188 17.4339 33.1027 17.4238 33.0365 17.3859C33.0035 17.3666 32.9696 17.3476 32.9297 17.3293C32.8159 17.2765 32.4908 17.0511 32.0806 16.5741C31.7576 16.1998 31.3014 15.3344 31.1235 14.9859C31.234 14.8802 31.4075 14.7425 31.714 14.5234C32.2488 14.141 32.4448 13.8988 32.4985 13.6022C32.6372 13.824 32.7558 14.0461 32.7998 14.2139C32.9736 14.8847 33.3177 15.2828 33.6899 15.2508L33.6899 15.2508ZM30.7694 2.94838C30.8065 3.03209 30.817 3.18313 30.8271 3.33009C30.8489 3.64 30.8755 4.02618 31.1699 4.28813C31.3744 4.47154 31.4781 4.67095 31.5216 4.79261C31.5127 4.79522 31.5047 4.79782 31.4966 4.8008C31.2941 4.86702 30.9561 4.97752 30.8969 5.28668C30.8779 5.38304 30.8646 5.5631 30.8505 5.76773C30.8331 6.01774 30.7968 6.53785 30.7674 6.62044C30.7154 6.63755 30.5391 6.61449 30.4338 6.60072C30.2834 6.58063 30.1285 6.56017 29.9805 6.57282C29.534 6.613 29.171 7.19673 29.0879 7.34814C28.7261 7.84221 28.7491 8.85487 29.1303 9.1845C29.3307 9.35787 29.5687 9.39507 29.7788 9.42818C29.9397 9.45311 30.0918 9.47729 30.2334 9.55951C30.5468 9.74182 30.8565 10.2054 31.2151 10.7418L31.2844 10.846C31.4994 11.1667 31.637 11.4524 31.7289 11.7873C31.3062 11.7631 30.5339 11.7095 30.0216 11.615C29.288 11.4796 28.7015 10.9837 28.2731 10.6138C27.8448 10.2444 27.4302 9.17931 26.9248 8.32213C26.5723 7.72427 26.2702 7.52411 26.1181 7.4564C26.2585 7.28787 26.3621 7.05386 26.4319 6.70154C26.4613 6.55421 26.3557 6.41358 26.1968 6.38679C26.0366 6.35889 25.8846 6.45711 25.8552 6.60369C25.8362 6.69967 25.8164 6.77854 25.7951 6.84886C25.6563 6.63234 25.259 6.0393 24.8767 5.70748C24.4044 5.29787 24.1749 5.0073 24.1749 4.72973C24.1749 4.45256 24.2176 4.00277 24.404 4.01616C24.5903 4.02955 24.7762 4.41313 24.9481 4.80934C25.1199 5.20557 25.3639 5.49612 25.664 5.77405C25.9653 6.05196 26.0798 6.19705 26.2226 6.01178C26.3662 5.82688 26.3371 4.98088 26.4803 4.43953C26.6239 3.89821 26.6098 3.44844 26.9389 3.25091C27.2684 3.05262 27.842 2.85469 27.9565 3.06601C28.0711 3.27733 28.0138 3.48902 28.4151 3.38335C28.8156 3.27769 28.8729 2.85469 29.0592 2.57677C29.2456 2.2996 29.346 1.95547 29.7183 1.92942C29.8973 1.91677 30.0942 1.88478 30.2519 1.85427C30.3842 2.1028 30.5358 2.41493 30.7157 2.82755L30.7694 2.94838ZM21.899 19.5557C21.8853 19.5386 20.503 17.8581 19.9609 17.3807L19.5302 17.0057C18.9203 16.4778 17.9983 15.6794 17.7006 15.3546C16.9976 14.5867 16.2055 13.5439 16.1966 13.2995C16.1966 13.1042 16.6153 12.6652 17.4623 11.9747C17.8193 11.6841 18.6453 11.1447 19.0902 10.8544L19.3346 10.6945C19.4855 10.594 19.8529 10.3682 20.2586 10.1178C20.7503 9.81497 21.2976 9.47678 21.5945 9.28221C21.8349 9.12447 22.3024 8.88711 22.7138 8.67728C23.0433 8.50986 23.2684 8.39341 23.4269 8.30449C23.5745 8.26394 24.1803 8.10024 24.9088 7.95514C25.0769 7.92166 25.2246 7.89004 25.3621 7.85581C25.7945 8.25649 26.8569 9.30005 26.9166 9.94589C26.9908 10.7577 26.5003 11.299 25.64 12.0393C25.0024 12.5888 23.9114 12.7123 23.389 12.7395C23.3172 12.3373 23.2555 11.995 23.2555 11.995L23.2467 11.9961C23.4669 11.8942 23.6548 11.8317 23.8638 11.7625C24.0602 11.6974 24.2635 11.6297 24.5063 11.5255C24.8568 11.3752 25.9615 10.7465 26.0329 10.4864C26.0546 10.4076 26.0365 10.319 25.9833 10.2528C25.886 10.1326 25.7021 10.1081 25.5727 10.1977C25.538 10.2212 25.5113 10.2509 25.4912 10.2837C25.3524 10.4065 24.7333 10.8313 24.2594 11.0341C24.0343 11.1304 23.8472 11.1926 23.6657 11.2528C23.3825 11.3462 23.0893 11.4433 22.7041 11.6524C22.425 11.8034 22.2403 11.8529 22.0451 11.9058C21.8386 11.9612 21.6248 12.0189 21.3211 12.18C21.0638 12.3161 20.8968 12.3742 20.7198 12.4355C20.5201 12.5044 20.3144 12.5758 19.9889 12.7466C19.7703 12.8612 19.6021 12.9237 19.4662 12.9731C19.2315 13.0595 18.9657 13.1573 18.9657 13.4813C18.9657 13.7001 19.108 13.8802 19.2581 14.0706C19.3484 14.1849 19.4412 14.3032 19.5009 14.4263C19.6993 14.8385 20.27 15.5368 20.5064 15.8177C20.6468 15.9851 21.6648 17.1399 22.0322 17.3293C22.2552 17.445 22.5561 17.4428 22.8751 17.4402C23.0542 17.4398 23.2369 17.4379 23.3954 17.4576C23.7395 17.5019 23.9738 17.7899 24.0783 18.0443C24.1634 18.2534 24.1412 18.6147 24.017 19.063C23.9859 19.1735 23.8411 19.409 23.3285 19.9045C23.0086 20.2129 22.8626 20.2382 22.8296 20.2353C22.6803 20.2137 22.1443 19.8543 21.8991 19.5555L21.899 19.5557ZM25.3491 30.5932C25.2264 30.738 25.0623 30.9184 24.8913 31.1074C24.5884 31.4404 24.2754 31.7853 24.0963 32.0323C23.8523 32.3705 22.4451 33.7962 22.0236 34.2068C21.678 34.5428 20.906 34.9706 20.5745 35.009C20.3732 35.0302 20.201 34.9818 19.9828 34.9171C19.8376 34.8743 19.6839 34.8296 19.5084 34.7999C18.9607 34.7054 16.596 34.7467 16.573 34.7467C16.0579 34.7589 12.2267 34.8229 11.6685 34.7958C11.1687 34.7679 10.1495 34.881 9.60177 34.9409L9.33113 34.9691C8.77251 35.0212 8.44824 35.2374 8.34337 35.5968C8.16429 35.2206 7.88237 34.5632 7.87269 34.1198C7.86341 33.6878 8.18204 33.2049 8.39782 32.9277C8.44582 33.0468 8.53374 33.187 8.7471 33.2611C9.13269 33.3954 11.4901 33.011 12.1153 32.7551C12.7941 32.4768 13.9832 32.171 15.2173 31.9571C16.0724 31.8108 17.3897 32.1416 18.1766 32.341C18.7223 32.4779 18.8856 32.5177 19.0256 32.4798C19.4725 32.3626 20.4127 30.8745 20.4215 30.8599C20.5998 30.5589 20.7999 29.9235 21.0112 29.2501C21.1153 28.9179 21.2165 28.5953 21.3069 28.3464C21.5065 27.7954 22.0119 26.6819 22.2228 26.2225C22.5281 26.644 22.923 27.022 23.4421 27.4915C23.7571 27.7764 24.4343 28.3055 25.2914 28.9759C25.5318 29.1638 25.7919 29.3673 26.0626 29.5801C25.9097 29.8193 25.5846 30.3152 25.3491 30.5932L25.3491 30.5932ZM33.408 39.8559C32.4868 38.5154 32.4562 37.4522 32.4275 36.4231C32.4066 35.7095 32.3872 35.0354 32.0661 34.3441C31.539 33.2098 28.7407 30.9627 25.6709 28.5631C25.4366 28.38 25.2179 28.2089 25.0151 28.0493C25.5991 27.9395 26.793 27.7074 27.919 27.4481C29.0967 27.1761 30.1817 26.5526 30.6472 26.2609C30.8605 26.5522 31.061 26.8584 31.282 27.2055C31.5393 27.6103 31.9338 28.3689 32.3512 29.1714C32.7989 30.0349 33.2623 30.9267 33.5911 31.4404C33.9125 31.9445 34.1787 32.2053 34.3723 32.395C34.5595 32.5784 34.6619 32.6789 34.7313 32.901C34.8249 33.2035 34.8192 33.5629 34.8124 33.9788C34.8071 34.2667 34.8019 34.5937 34.8321 34.9409C34.8934 35.6664 35.452 37.0001 35.9013 38.0716C36.1469 38.6598 36.3796 39.2156 36.4438 39.4723C36.6362 40.2446 37.365 41.8916 37.6134 42.3518C37.7893 42.6744 38.0071 42.7685 38.2099 42.7838C38.139 43.1223 37.9845 43.7005 37.7017 44.0167C37.4525 44.2957 36.9681 44.3846 36.6216 44.4136L36.5071 44.2552C36.4913 44.2354 35.0006 42.1725 33.4078 39.8558L33.408 39.8559Z" fill="#FFD089"/>
</svg>
