<svg width="375" height="154" viewBox="0 0 375 154" fill="none" xmlns="http://www.w3.org/2000/svg">
<path d="M0 0H375V54C375 109.228 330.228 154 275 154H100C44.7715 154 0 109.228 0 54V0Z" fill="#3579DC"/>
<path d="M331.599 48.1218C331.021 46.9775 329.551 46.4932 328.324 47.0245C327.863 47.2288 282.165 67.2234 270.822 72.7386C261.682 77.179 250.131 84.1472 245.542 86.9668C245.271 86.3762 245.01 85.7898 244.68 85.1767C241.968 80.1295 238.453 75.2805 234.241 70.7587C227.744 63.7845 220.78 56.9286 212.276 52.0454C207.529 49.3195 202.286 47.2822 196.661 47.0165C190.835 46.7407 185.728 49.44 180.956 52.2764C175.446 55.552 167.522 61.7516 160.406 60.1906C157.206 59.4876 156.951 57.0438 158.233 54.6487C166.273 39.6338 184.158 29.7334 202.277 31.1353C213.942 32.0222 240.017 40.3039 240.281 40.3882C241.022 40.6231 241.853 40.5128 242.504 40.0919C242.585 40.0387 250.792 34.6562 263.944 27.6617C277.374 20.5159 328.407 -6.94751 331.496 -8.5702C334.584 -10.1906 332.494 -14.394 329.034 -12.5344C325.572 -10.6749 274.92 16.5496 261.499 23.6891C250.684 29.4391 243.31 34.0226 240.694 35.6882C235.333 34.0147 213.623 27.4105 202.681 26.5746C197.761 26.2047 192.501 26.6951 187.4 27.8272C182.19 26.6767 176.99 26.2333 172.314 26.5664C161.353 27.4246 139.651 34.0207 134.29 35.69C131.672 34.0205 124.274 29.4231 113.466 23.6704C100.02 16.5142 48.8899 -10.9633 45.9188 -12.5102C42.9477 -14.057 40.2327 -10.2747 43.457 -8.54598C46.6813 -6.81725 97.5975 20.4972 111.015 27.643C124.159 34.6354 132.396 40.0402 132.479 40.0936C133.086 40.492 133.943 40.631 134.702 40.3899C134.963 40.3041 161.028 32.0426 172.708 31.125C174.144 31.0249 175.647 31.0351 177.177 31.0923C172.159 33.2379 167.739 36.0108 164.606 39.2351C157.124 46.9447 151.866 52.8015 152.352 57.9673C152.535 59.8922 153.552 61.5739 155.293 62.8388C162.899 68.3419 172.838 62.9532 187.147 54.0949C197.856 47.4744 212.04 53.9028 230.517 73.7524C234.46 77.9823 237.744 82.5167 240.272 87.2226C243.061 92.3986 243.2 96.0172 240.701 98.2818C237.854 100.861 233.08 100.832 230.4 98.4166C230.396 98.4125 230.328 98.3492 230.279 98.3022C224.424 93.0853 218.814 87.6354 213.075 82.3106C212.115 81.4177 210.556 81.4177 209.594 82.3106C208.633 83.2036 208.633 84.6524 209.594 85.5453C215.35 90.901 221.131 96.2346 226.87 101.606C229.616 104.273 229.581 108.581 226.8 111.205C224.083 113.726 219.329 113.738 216.66 111.395L203.448 99.1119C202.487 98.2189 200.929 98.2189 199.966 99.1119C199.006 100.005 199.006 101.454 199.966 102.349L213.227 114.676C215.697 116.973 216.686 120.563 213.924 123.179C212.745 124.235 211.227 124.82 209.64 124.82C208.562 124.82 206.986 124.562 205.639 123.389L197.46 115.833C196.996 114.944 196.409 114.098 195.618 113.359C194.35 112.179 192.752 111.438 191.062 111.066C192.679 109.251 193.603 107.018 193.603 104.631C193.603 101.917 192.468 99.369 190.402 97.4523C188.604 95.7808 186.329 94.8592 183.984 94.5977C186.217 90.3474 185.487 85.0833 181.694 81.5565C178.302 78.4035 173.409 77.535 169.14 78.8612C169.145 75.9269 167.945 72.9903 165.542 70.7572C160.744 66.2964 152.934 66.2964 148.135 70.7572L131.74 85.9991C131.1 86.5938 130.56 87.2436 130.091 87.924C127.46 86.2893 113.771 77.8436 103.262 72.7396C91.9176 67.2244 46.2149 47.2274 45.7591 47.0234C44.5304 46.4901 43.0621 46.9764 42.4818 48.1207C41.9038 49.265 42.4313 50.628 43.6622 51.1674C44.1216 51.3656 89.7267 71.3256 100.985 76.7958C112.159 82.2252 128.317 92.2888 128.317 92.2888C128.317 92.2888 128.267 92.5913 128.241 92.8079C127.836 96.1509 128.988 99.6266 131.74 102.183C134.591 104.833 138.288 105.714 142.203 105.397C141.669 108.928 142.9 112.559 145.623 115.089C148.263 117.541 151.815 118.606 155.488 118.33C154.98 121.518 156.066 124.795 158.528 127.084C160.787 129.184 163.77 130.124 166.922 130.024C166.625 132.754 167.588 135.508 169.687 137.46C171.595 139.234 174.101 140.123 176.607 140.123C179.115 140.123 181.618 139.236 183.529 137.46L188.303 133.022L192.352 136.786C194.128 138.496 196.594 139.438 199.298 139.438C201.933 139.438 204.39 138.506 206.213 136.814C208.406 134.775 209.296 132.002 208.973 129.333C212.081 129.511 215.17 128.424 217.392 126.422C219.911 124.041 220.885 120.766 220.37 117.668C220.788 117.707 221.199 117.776 221.628 117.776C224.85 117.776 228.004 116.56 230.297 114.429C232.989 111.889 234.172 108.26 233.646 104.745C237.093 104.999 241.887 104.433 244.134 101.559C246.969 98.995 247.919 95.6175 247.077 91.5079C250.374 89.4686 263.36 81.5238 273.1 76.7911C284.356 71.323 329.955 51.3631 330.416 51.1649C331.65 50.6295 332.179 49.2666 331.597 48.1223L331.599 48.1218ZM135.227 98.9475C132.348 96.2706 132.348 91.9142 135.227 89.2374L151.623 73.9955C153.063 72.6571 154.953 71.9889 156.845 71.9889C158.736 71.9889 160.626 72.6591 162.068 73.9955C164.945 76.6724 164.945 81.0288 162.068 83.704L145.664 98.9538C142.782 101.62 138.105 101.616 135.228 98.9476L135.227 98.9475ZM149.11 111.854C147.726 110.566 146.963 108.856 146.963 107.037C146.963 105.219 147.726 103.508 149.152 102.182L165.548 86.9383C167.728 84.9112 169.698 82.7962 173.037 82.7962C174.993 82.7962 176.833 83.5053 178.217 84.7927C179.602 86.08 180.365 87.7904 180.365 89.609C180.365 91.4276 179.602 93.1379 178.217 94.4253L159.473 111.853C156.615 114.512 151.964 114.508 149.111 111.853L149.11 111.854ZM162.015 123.849C159.677 121.675 159.677 118.137 162.015 115.963L178.448 100.687C179.617 99.5997 181.152 99.0582 182.688 99.0582C184.225 99.0582 185.761 99.6018 186.928 100.687C188.062 101.739 188.687 103.141 188.687 104.629C188.687 106.116 188.065 107.518 186.928 108.57L170.496 123.847C168.232 125.96 164.279 125.96 162.016 123.849L162.015 123.849ZM180.053 134.227C178.158 135.989 175.074 135.989 173.175 134.227C171.28 132.464 171.28 129.597 173.175 127.833C176.758 124.505 180.345 121.194 183.844 117.798C185.082 116.596 186.605 115.509 188.386 115.331C190.863 115.084 193.38 116.993 193.527 119.306C193.646 121.174 192.412 122.89 190.981 124.206C187.348 127.547 183.675 130.859 180.053 134.227L180.053 134.227ZM202.737 133.582C200.934 135.257 197.582 135.237 195.87 133.584L191.788 129.789L195.624 126.223C196.718 125.206 197.461 123.994 197.927 122.715L202.734 127.157C204.64 128.927 204.64 131.81 202.737 133.581L202.737 133.582Z" fill="#F3F5F5"/>
</svg>
