<svg width="48" height="48" viewBox="0 0 48 48" fill="none" xmlns="http://www.w3.org/2000/svg">
<path d="M43.7636 15.5335C43.3494 14.7784 42.4385 14.2844 41.3884 14.1969C41.3285 14.0496 41.2201 13.9311 41.0738 13.8932C37.7018 13.0219 34.0583 10.2649 31.9635 8.16874C30.9399 7.14497 30.6804 6.99128 29.9388 6.61786L29.8796 6.58832C29.8628 6.57965 29.8449 6.58162 29.8274 6.57532C29.8907 6.40436 29.9476 6.21961 29.9977 6.02146C29.998 6.02028 29.9987 6.01989 29.9991 6.0187C30.7403 4.11608 30.599 1.52954 28.8769 0.483288C27.7163 -0.222619 26.0891 -0.282893 25.0752 1.17384C24.4167 2.12043 24.302 3.25414 24.7148 4.7428C24.7182 4.75422 24.7249 4.76249 24.729 4.77313C24.731 4.7818 24.7286 4.79007 24.731 4.79913C24.8501 5.28365 25.0012 5.71972 25.1705 6.12069C20.0861 8.05991 16.4366 12.1953 12.537 17.0007C12.4468 17.1114 12.4034 17.2595 12.4105 17.4084C11.6194 18.4685 10.5161 20.3633 11.7304 22.0004C12.0373 22.4144 12.3445 22.6161 12.6692 22.6161C12.6816 22.6161 12.6944 22.6157 12.7069 22.6149C13.1537 22.5936 13.4623 22.1902 13.6817 21.8412C13.7695 21.701 13.7954 21.5198 13.751 21.3539L13.4926 20.3861C13.5424 19.8192 13.7809 19.395 14.1477 18.8659C14.1992 18.8494 14.249 18.8266 14.2937 18.7895C14.8947 18.3011 15.5011 17.778 16.1219 17.2422C16.9376 16.5378 17.7815 15.8099 18.6684 15.1158C18.8784 14.9515 19.1156 14.7534 19.368 14.5415C20.0992 13.9293 21.0097 13.1675 21.6484 12.95C21.6955 12.9343 21.7352 12.9229 21.7688 12.915C21.6521 13.5118 20.9007 14.8972 20.5972 15.4557C20.3492 15.9139 20.2102 16.175 20.1358 16.3614C17.8396 19.3402 17.696 25.8285 19.1004 29.4297C19.054 29.6456 18.9143 30.0852 18.4897 30.9144C16.7194 32.8951 16.4892 33.8645 16.0357 35.7793C15.9223 36.2595 15.7924 36.8067 15.6181 37.4571C15.4425 37.8325 15.252 38.1724 15.0838 38.4734C14.8839 38.8303 14.683 39.1919 14.5501 39.5579C13.403 40.0849 12.1496 40.6679 10.8969 41.2513C8.60877 42.3168 6.24962 43.4159 4.64792 44.1128C3.85784 43.9851 3.34943 44.1084 3.11788 44.5091C3.04015 44.643 2.88738 45.0062 3.13706 45.4868C3.65694 46.4885 6.19507 48 10.3076 48C11.0799 48 11.9086 47.9464 12.7889 47.8259C17.7717 47.1472 25.1416 43.1252 36.6905 34.7838C37.1232 34.4659 37.3567 34.0026 37.3143 33.5453C37.2965 33.3483 37.1905 32.8626 36.601 32.6129C36.5209 32.579 36.4371 32.5814 36.355 32.5999C36.3251 32.3363 36.1427 32.1272 35.9088 32.1217C34.7839 32.0984 33.2496 32.2741 31.9804 32.5739C31.1059 32.7811 30.0637 33.0927 28.8739 33.5023C29.417 32.6078 29.8838 31.5536 29.905 29.7688C29.9305 29.7515 29.9605 29.7452 29.983 29.7215C30.0978 29.6053 30.1567 29.43 30.1419 29.2536C29.7959 25.2758 28.9126 22.9564 27.4153 20.2186L27.4843 20.0988C30.4437 14.9452 31.4936 13.5297 31.863 13.1559C34.356 15.3228 36.046 15.7897 38.3603 16.429C39.0404 16.6169 39.7446 16.8119 40.5475 17.0711C40.6757 17.1117 40.8113 17.088 40.9237 17.0045C41.0085 16.9411 41.0637 16.843 41.0994 16.7347C41.3251 16.8466 41.5466 16.9604 41.7515 17.0679C42.3487 17.3819 42.8696 17.6565 43.2586 17.6565C43.511 17.6565 43.7068 17.5414 43.8313 17.2472C44.0776 16.6705 44.053 16.0613 43.7636 15.5335ZM27.8172 7.36639C27.1085 7.4499 26.1536 6.6018 25.6374 4.52189C25.662 4.39978 25.7478 4.20636 26.0832 4.05588C26.9224 3.67811 28.3303 3.97395 28.9266 4.65109C29.1083 4.85712 29.1901 5.07456 29.1813 5.318C28.9592 6.50917 28.4592 7.29157 27.8172 7.36639ZM29.289 7.5866C29.9132 8.11367 30.0522 8.50365 30.0289 8.64777C30.0131 8.74547 29.8708 8.84277 29.6749 8.88846C29.2722 8.98379 28.6436 8.87979 27.9602 8.44687C28.4131 8.37951 28.8885 8.1113 29.289 7.5866ZM25.801 1.86492C26.5799 0.744647 27.8304 1.07983 28.4475 1.45446C29.2362 1.93386 29.4963 2.85568 29.4879 3.76993C28.8812 3.15226 27.8895 2.79458 26.9582 2.79458C26.5275 2.79458 26.1086 2.87139 25.7475 3.03408C25.6243 3.08923 25.5113 3.15384 25.4083 3.22672C25.3975 2.69295 25.5271 2.25845 25.801 1.86492ZM12.6774 21.5214C12.6764 21.5214 12.5983 21.5001 12.4368 21.2827C11.8584 20.5027 12.0973 19.4856 13.1956 18.0356C13.2888 18.0738 13.3537 18.1199 13.4082 18.192C12.9863 18.7998 12.6017 19.4635 12.5535 20.4165C12.5502 20.4827 12.5569 20.5485 12.5737 20.6119L12.785 21.4025C12.7083 21.5002 12.6743 21.5186 12.6774 21.5214ZM20.6165 17.3856C21.0156 17.722 21.3594 18.0462 21.6946 18.3625C22.9719 19.5664 23.9888 20.5255 26.5919 20.7418C27.9345 23.1853 28.7276 25.1754 29.1092 28.3957C29.0614 28.4437 29.0234 28.5008 28.9955 28.5666C27.9164 28.309 27.4884 28.4311 26.5916 29.2331C26.0832 27.1898 25.1178 24.0889 23.0847 23.5847C23.0534 23.5768 23.0215 23.5729 22.9902 23.5729C22.8842 23.5729 22.7799 23.6162 22.6954 23.695C22.5864 23.7978 22.5218 23.9546 22.5205 24.1184C22.5191 24.2926 22.4629 25.498 22.4017 26.6025C22.3509 26.6167 22.3034 26.6376 22.2614 26.6679C22.2526 26.6628 22.2449 26.6565 22.2358 26.6514C21.5224 26.25 20.5594 26.3807 19.8948 26.9704C19.7387 27.1095 19.6034 27.2683 19.491 27.4443C18.7777 24.2157 19.0724 19.7247 20.6165 17.3856ZM24.5114 37.1328C24.6759 37.9053 25.4549 38.3638 26.0578 38.655C26.1137 38.6762 26.2426 38.7148 26.4135 38.7471C24.0019 40.2385 21.5119 41.6819 19.0239 42.8431C19.1494 42.5575 19.1652 42.1191 18.8351 41.4577C18.822 41.4317 18.8075 41.4073 18.7914 41.3844C18.3284 40.7309 17.7903 39.9152 17.6622 39.6453C17.6635 39.524 17.6729 39.416 17.681 39.3057C20.0808 38.2185 22.3017 37.2298 24.5952 36.2946C24.4559 36.6283 24.4666 36.924 24.5114 37.1328ZM25.3603 34.8508C25.3246 34.8548 25.2893 34.8524 25.2543 34.8666C22.8104 35.8352 20.4917 36.863 18.0054 37.9868C18.2244 37.5322 18.5438 37.1296 18.9543 36.6124L19.2033 36.2973C19.2174 36.2791 19.2299 36.2606 19.242 36.2409C19.3154 36.1184 19.4281 35.9195 19.5667 35.678C19.9624 34.9839 21.0129 33.142 21.3292 32.8879C22.8845 31.6403 23.1362 30.0043 23.1806 28.7167C23.2449 28.3472 23.2809 27.6874 23.3451 26.4958C23.3744 25.9486 23.404 25.3561 23.4242 24.898C24.8334 25.8489 25.5539 28.9215 25.881 30.3196C25.9207 30.4874 26.029 30.6178 26.1676 30.6792C26.0381 31.7865 25.7628 33.0798 25.3603 34.8508ZM15.8658 39.0741C16.0516 38.7424 16.2619 38.3666 16.4621 37.9329C16.4762 37.9026 16.4877 37.8707 16.4964 37.8376C16.6822 37.1514 16.8181 36.5754 16.9372 36.0728C17.3743 34.2273 17.555 33.4631 19.1792 31.6574C19.2095 31.6235 19.2357 31.5857 19.2573 31.5431C19.7267 30.6344 19.9801 29.9643 20.0403 29.4868C20.0423 29.4778 20.044 29.4695 20.0457 29.4597C20.0467 29.451 20.05 29.44 20.0511 29.4313C20.0534 29.408 20.0463 29.3872 20.0463 29.3647C20.0463 29.3344 20.0517 29.3044 20.0467 29.2733C19.9299 28.4973 20.2065 28.0671 20.4596 27.843C20.8425 27.5018 21.431 27.4136 21.8304 27.6381C22.0098 27.7394 22.1252 27.8934 22.181 28.0951C22.1975 28.2062 22.211 28.3062 22.2221 28.3968C22.2241 28.4724 22.2295 28.5686 22.2446 28.6694C22.2076 29.7661 22.0057 31.0167 20.7994 31.9842C20.4091 32.297 19.7668 33.3527 18.7873 35.0695C18.6651 35.2845 18.5628 35.4638 18.4922 35.5835L18.2677 35.8671C17.4056 36.9524 16.7249 37.8104 16.7249 39.739C16.7249 39.9266 16.7249 40.1822 18.0446 42.0479C18.0904 42.1428 18.1193 42.2169 18.1382 42.2728C17.764 42.257 16.8231 41.8899 15.8187 41.0449C15.1215 40.4564 15.2104 40.2452 15.8658 39.0741ZM11.2432 42.2692C12.3388 41.7587 13.4317 41.2498 14.4573 40.777C14.5606 41.1548 14.8075 41.5392 15.2739 41.9324C15.9994 42.5422 17.0896 43.2193 17.9318 43.3339C16.0185 44.16 14.115 44.7993 12.2579 45.1431C10.4167 45.4855 8.45732 45.3086 6.18328 44.6031C7.66017 43.9377 9.47357 43.0937 11.2432 42.2692ZM12.6816 46.7406C7.73963 47.413 4.86837 45.8728 4.11869 45.1503C4.2341 45.1515 4.39125 45.1649 4.60122 45.2047C7.59023 46.3325 10.0695 46.657 12.4037 46.2253C18.4982 45.096 24.9872 40.9389 30.713 37.2711C32.6222 36.048 34.4369 34.8855 36.078 33.9432C24.8762 42.0246 17.4392 46.0922 12.6816 46.7406ZM32.1668 33.6481C33.1332 33.4204 34.258 33.2715 35.212 33.2297C33.6742 34.1314 32.0127 35.191 30.2649 36.311C29.6512 36.7041 29.0277 37.1028 28.3981 37.503C28.3513 37.2225 28.1447 36.983 27.7594 36.5627C27.6534 36.4477 27.498 36.2779 27.3967 36.1546C27.5538 35.7055 27.7406 35.3313 27.9418 34.9823C29.6168 34.3638 31.0381 33.9155 32.1668 33.6481ZM27.7258 33.4751C27.2833 34.1476 26.7822 34.909 26.4377 36.0191C26.2994 36.4674 26.5911 36.7853 27.1218 37.3632C27.2032 37.4526 27.3089 37.5676 27.3933 37.6649C27.1554 37.7472 26.6234 37.7232 26.3835 37.6299C25.5312 37.2166 25.4292 36.9224 25.4177 36.8676C25.4043 36.8042 25.4642 36.7065 25.5009 36.6549C25.5597 36.5714 25.6223 36.491 25.6842 36.4126C25.8834 36.1574 26.09 35.8942 26.1661 35.561C26.721 33.1333 27.0642 31.5564 27.1604 30.1225C27.1608 30.115 27.1581 30.1083 27.1581 30.1012C27.8253 29.5017 28.0949 29.4449 28.9694 29.6754C28.9636 31.5855 28.3853 32.471 27.7258 33.4751ZM32.224 12.1053C32.1018 11.9962 31.9494 11.9541 31.7882 11.984C31.3508 12.0687 30.5981 12.7183 26.7092 19.4898L26.6201 19.6446C24.344 19.4481 23.5116 18.6693 22.2814 17.51C21.9479 17.1952 21.5771 16.8474 21.1481 16.4866C21.2225 16.346 21.3086 16.1868 21.387 16.0427C22.3702 14.2298 23.0301 12.8905 22.5607 12.1578C22.3315 11.7998 21.9365 11.7135 21.3874 11.8998C20.5956 12.1693 19.6548 12.9571 18.8243 13.6516C18.5804 13.856 18.3516 14.0475 18.149 14.2062C17.2442 14.9137 16.3915 15.6503 15.5671 16.3618C15.093 16.771 14.6273 17.1728 14.1663 17.5573C14.037 17.3579 13.9028 17.2224 13.7332 17.1192C17.3474 12.7018 20.7978 8.94613 25.4467 7.16715C26.647 9.16869 28.2072 10.0168 29.3698 10.0168C29.5421 10.0168 29.7059 9.99827 29.8584 9.96243C30.4516 9.82298 30.8587 9.40739 30.9482 8.84921C30.9597 8.77752 30.9657 8.70031 30.9661 8.61837C31.0818 8.72946 31.2073 8.85236 31.3564 9.00127C33.445 11.0915 37.0269 13.8162 40.4408 14.8415L40.2962 15.8614C39.672 15.6699 39.0965 15.5108 38.576 15.3674C36.3097 14.7395 34.6733 14.2873 32.224 12.1053ZM42.1354 16.0717C41.8702 15.9323 41.5758 15.783 41.2756 15.6396L41.3258 15.2862C42.1515 15.3516 42.7622 15.7333 42.9769 16.1241C43.0482 16.2541 43.0758 16.3837 43.0604 16.5212C42.8262 16.4349 42.4372 16.2312 42.1354 16.0717Z" fill="#FFFFFF"/>
</svg>
