<svg width="33" height="39" viewBox="0 0 33 39" fill="none" xmlns="http://www.w3.org/2000/svg">
<path d="M32.5 16C32.5 24.546 25.3512 31.5 16.5 31.5C7.64883 31.5 0.5 24.546 0.5 16C0.5 7.45398 7.64883 0.5 16.5 0.5C25.3512 0.5 32.5 7.45398 32.5 16Z" fill="white" stroke="#3579DC"/>
<path d="M15.5714 12.1249C15.5714 12.9239 14.9478 13.5714 14.1787 13.5714C13.4093 13.5714 12.7857 12.9238 12.7857 12.1249C12.7857 11.3262 13.4094 10.6786 14.1787 10.6786C14.9478 10.6786 15.5714 11.3262 15.5714 12.1249Z" fill="#3579DC"/>
<path d="M22.9996 12.6371C22.9996 5.22032 21.7135 2 20.1292 2C18.5441 2 17.258 5.22003 17.258 12.6371C17.258 13.022 17.2648 13.3995 17.271 13.7763H16.2298V13.7774H16.1128L12.1044 13.7763C10.8104 13.7763 10 14.6957 10 15.8424V20.7323C10 21.6818 11.4418 21.6818 11.4418 20.7323V15.9725H11.9002L11.8978 28.1073C11.8978 28.5994 12.3575 28.9994 12.9236 28.9994C13.4897 28.9994 13.9494 28.5994 13.9494 28.1073V21.2715L14.4057 21.2718L14.4027 28.1077C14.4027 28.5998 14.861 28.9997 15.4278 28.9997C15.9933 28.9997 16.4524 28.5998 16.4524 28.1077L16.458 15.9728V15.2572H17.2634C17.2627 15.3633 17.2584 15.4652 17.2584 15.5725C17.2584 22.9888 18.5445 29 20.1295 29C21.7139 29 23 22.9888 23 15.5725C23 15.0766 22.9926 14.5871 22.9827 14.1052C22.9922 13.6228 22.9996 13.1333 22.9996 12.6369L22.9996 12.6371Z" fill="#3579DC"/>
<path d="M16.5 39L7.40673 29.25L17 32L25.5933 29.25L16.5 39Z" fill="#3579DC"/>
</svg>
