<svg width="14" height="28" viewBox="0 0 14 28" fill="none" xmlns="http://www.w3.org/2000/svg">
<path d="M6 10.4999C6 11.3284 5.32838 12 4.5001 12C3.67158 12 3 11.3284 3 10.4999C3 9.67158 3.67162 9 4.5001 9C5.32842 9 6 9.67162 6 10.4999Z" fill="#3579DC"/>
<path d="M13.9996 11.0311C13.9996 3.33959 12.6146 0 10.9083 0C9.20138 0 7.81636 3.33929 7.81636 11.0311C7.81636 11.4302 7.82358 11.8217 7.83034 12.2124H6.70904V12.2136H6.58301L2.26632 12.2124C0.872712 12.2124 0 13.1659 0 14.3551V19.426C0 20.4108 1.55273 20.4108 1.55273 19.426V14.49H2.04639L2.04382 27.0742C2.04382 27.5846 2.53888 27.9993 3.14854 27.9993C3.75819 27.9993 4.25325 27.5846 4.25325 27.0742V19.9852L4.74458 19.9856L4.74132 27.0746C4.74132 27.585 5.23498 27.9997 5.84537 27.9997C6.45436 27.9997 6.94871 27.585 6.94871 27.0746L6.95477 14.4903V13.7482H7.82212C7.82142 13.8582 7.81676 13.964 7.81676 14.0752C7.81676 21.7662 9.20178 28 10.9087 28C12.615 28 14 21.7662 14 14.0752C14 13.5609 13.9921 13.0533 13.9814 12.5535C13.9916 12.0533 13.9995 11.5457 13.9995 11.0308L13.9996 11.0311Z" fill="#3579DC"/>
</svg>
