<svg width="934" height="795" viewBox="0 0 934 795" fill="none" xmlns="http://www.w3.org/2000/svg">
<path d="M820.907 456.853C819.344 451.822 814.006 448.989 808.969 450.546C768.724 463.14 675.422 494.901 613.636 494.901C556.985 494.901 523.63 461.989 523.63 424.745C523.63 386.823 550.562 356.067 592.308 356.067C610.532 356.067 627.078 363.182 639.376 374.77C641.121 376.682 643.704 377.801 646.49 377.614C651.376 377.291 655.063 373.062 654.74 368.166C653.334 290.483 596.032 226.366 518.474 234.593C506.489 235.863 493.692 240.035 482.599 244.613C421.626 269.775 387.839 330.149 342.612 374.379C312.456 403.863 277.123 428.291 240.806 449.545C202.951 471.712 161.779 489.519 119.404 501.149C114.269 502.332 111.05 507.452 112.222 512.587C113.389 517.722 118.524 520.951 123.654 519.78C141.024 515.149 158.014 508.514 175.285 503.425C232.957 486.446 292.421 472.05 352.338 466.19C387.484 462.748 423.302 462.982 457.713 471.664C474.036 475.784 489.796 481.768 504.978 489.034C520.025 496.247 533.853 506.236 548.937 513.179C594.093 533.976 644.546 525.543 690.27 510.481C727.573 498.184 775.093 480.205 814.582 468.788C819.635 467.241 822.452 461.897 820.905 456.855L820.907 456.853Z" fill="#1C3346"/>
<path d="M652.253 249.747C652.253 259.215 638.051 259.215 638.051 249.747C638.051 240.283 652.253 240.283 652.253 249.747Z" fill="#1C3346"/>
<path d="M695.16 443.52C695.16 449.614 686.019 449.614 686.019 443.52C686.019 437.426 695.16 437.426 695.16 443.52Z" fill="#1C3346"/>
<path d="M687 394.467C687 400.561 677.859 400.561 677.859 394.467C677.859 388.373 687 388.373 687 394.467Z" fill="#1C3346"/>
<path d="M602.293 202.453C602.293 210.406 590.361 210.406 590.361 202.453C590.361 194.5 602.293 194.5 602.293 202.453Z" fill="#1C3346"/>
<path d="M616.12 182.467C616.12 187.961 607.875 187.961 607.875 182.467C607.875 176.972 616.12 176.972 616.12 182.467Z" fill="#1C3346"/>
<path d="M700.507 319.427C700.507 324.823 692.413 324.823 692.413 319.427C692.413 314.031 700.507 314.031 700.507 319.427Z" fill="#1C3346"/>
<path d="M649.84 395.213C649.84 402.239 639.298 402.239 639.298 395.213C639.298 388.182 649.84 388.182 649.84 395.213Z" fill="#1C3346"/>
<path d="M547.2 202.907C547.2 209.938 536.658 209.938 536.658 202.907C536.658 195.881 547.2 195.881 547.2 202.907Z" fill="#1C3346"/>
<path d="M671.547 257.92C671.547 264.956 660.989 264.956 660.989 257.92C660.989 250.878 671.547 250.878 671.547 257.92Z" fill="#1C3346"/>
<path d="M707.147 346.867C707.147 353.898 696.605 353.898 696.605 346.867C696.605 339.841 707.147 339.841 707.147 346.867Z" fill="#1C3346"/>
<path d="M675.64 301.413C675.64 306.085 671.848 309.877 667.171 309.877C662.499 309.877 658.708 306.085 658.708 301.413C658.708 296.736 662.499 292.945 667.171 292.945C671.848 292.945 675.64 296.736 675.64 301.413Z" fill="#1C3346"/>
<path d="M669.067 412.853C669.067 417.531 665.28 421.317 660.608 421.317C655.936 421.317 652.145 417.531 652.145 412.853C652.145 408.182 655.936 404.395 660.608 404.395C665.28 404.395 669.067 408.181 669.067 412.853Z" fill="#1C3346"/>
</svg>
