<svg width="24" height="24" viewBox="0 0 24 24" fill="none" xmlns="http://www.w3.org/2000/svg">
<path d="M14.7992 10.7995C14.7958 10.07 14.9194 9.24971 15.3423 8.79165C15.7667 8.75147 16.1351 8.57004 16.4001 8.2604C16.6944 8.60415 17.1158 8.80024 17.6001 8.80024C18.4791 8.80024 19.2001 8.07919 19.2001 7.20024C19.2001 5.22452 18.195 3.3863 16.6689 2.06561C16.5985 2.00311 16.5083 1.9674 16.4142 1.96472C16.0351 1.95419 15.8552 2.42721 16.1455 2.67096C17.5253 3.8647 18.4001 5.49665 18.4001 7.19988C18.4001 7.64648 18.0467 7.99988 17.6001 7.99988C17.1535 7.99988 16.8001 7.64648 16.8001 7.19988C16.7928 6.67398 16.0076 6.67398 16.0001 7.19988C16.0001 7.64648 15.6467 7.99988 15.2001 7.99988C14.7535 7.99988 14.4001 7.64648 14.4001 7.19988C14.3928 6.67398 13.6076 6.67398 13.6001 7.19988C13.6001 7.64648 13.2467 7.99988 12.8001 7.99988C12.3535 7.99988 12.0001 7.64648 12.0001 7.19988C11.9926 6.67398 11.2076 6.67398 11.2001 7.19988C11.2001 7.64648 10.8467 7.99988 10.4001 7.99988C9.95351 7.99988 9.60011 7.64648 9.60011 7.19988C9.60011 5.75613 8.28958 4.47201 6.40798 4.39988C4.37154 4.39988 2.89191 5.5474 1.88459 6.97487C2.29102 6.0311 2.87851 5.06379 3.55637 4.25771C5.33671 2.1404 7.90992 0.799831 11.2003 0.799831C11.8511 0.799831 12.4915 0.889116 13.1065 1.05536C13.6347 1.21876 13.8536 0.408599 13.3151 0.28357C12.6349 0.1 11.9243 0 11.2002 0C7.69042 0 4.86377 1.45947 2.94377 3.74213C1.02414 6.02482 0 9.11675 0 12.4V22.799C0 23.4569 0.541257 24.0006 1.19927 24.0006L22.8016 24.0005C23.4594 24.0005 24 23.4567 24 22.7989V13.9998C24 13.7789 23.8212 13.5998 23.5944 13.5998H23.2C22 13.5998 21.4576 14.3998 20.4 14.3998C19.3423 14.3998 18.8185 13.5665 17.5933 13.6001C16.286 13.6001 14.8058 12.2278 14.7992 10.7991L14.7992 10.7995ZM14.6328 1.64888C14.759 1.71406 14.8828 1.78281 15.0047 1.85442C15.4649 2.12567 15.871 1.4346 15.4103 1.16459C15.2758 1.08566 15.1392 1.01066 15.0001 0.938875C14.5435 0.721733 14.1562 1.36048 14.633 1.64905L14.6328 1.64888ZM19.5795 1.6021C19.2361 1.6021 19.0769 2.04585 19.317 2.28406C19.6824 2.64317 19.9815 3.16658 19.999 3.60118C19.999 4.25924 20.5426 4.79958 21.2006 4.79958C21.8586 4.79958 22.3999 4.25924 22.3999 3.60118C22.3999 2.82331 21.8543 2.27995 21.2781 1.9919C20.7018 1.70369 20.067 1.60208 19.5797 1.60208L19.5795 1.6021ZM20.4983 2.54422C21.239 2.79244 21.599 3.13138 21.599 3.60118C21.599 3.8269 21.4261 3.99958 21.2006 3.99958C20.9749 3.99958 20.799 3.82672 20.799 3.60118C20.799 3.19636 20.6635 2.83995 20.4983 2.54422H20.4983ZM6.39132 5.2021C7.919 5.26424 8.79991 6.24585 8.79991 7.2005C8.79991 8.07945 9.52097 8.8005 10.3999 8.8005C10.8842 8.8005 11.3056 8.60443 11.5999 8.26066C11.8942 8.60441 12.3156 8.8005 12.7999 8.8005C13.2842 8.8005 13.7056 8.60443 13.9999 8.26066C14.1347 8.41816 14.2867 8.52209 14.4687 8.62084C14.0665 9.35067 13.9992 10.1364 13.9992 10.7998C13.9992 12.1451 14.9256 13.3796 16.1008 14.0067C15.6996 14.2046 15.3122 14.4005 14.8001 14.4005C13.7424 14.4005 13.2187 13.5672 12.0001 13.6005C10.7815 13.5672 10.2578 14.4005 9.2001 14.4005C8.14241 14.4005 7.61866 13.5672 6.4001 13.6005C5.18154 13.5672 4.65779 14.4005 3.6001 14.4005C2.54241 14.4005 2.01866 13.5672 0.800096 13.6005V12.4005C0.800096 11.6374 1.18849 9.74332 2.09847 8.13491C3.00705 6.52901 4.37331 5.20618 6.3915 5.20206L6.39132 5.2021ZM20.379 8.80137C20.0356 8.80137 19.8763 9.24512 20.1165 9.48333C20.4802 9.84333 20.7627 10.3278 20.7984 10.8005C20.7984 11.4585 21.342 11.9997 22 11.9997C22.6581 11.9997 23.1993 11.4585 23.1993 10.8005C23.1993 10.0226 22.6531 9.47922 22.0766 9.19099C21.5004 8.90277 20.8662 8.80117 20.3789 8.80117L20.379 8.80137ZM21.297 9.74349C22.0054 9.95617 22.3986 10.3305 22.3986 10.8005C22.3986 11.0262 22.2258 11.1988 22.0002 11.1988C21.7745 11.1988 21.5986 11.026 21.5986 10.8005C21.5986 10.3956 21.4624 10.0392 21.297 9.74349H21.297ZM0.80101 14.4004C1.83923 14.4008 2.30885 15.2004 3.60028 15.2004C4.89207 15.2004 5.36151 14.4004 6.40028 14.4004C7.43905 14.4004 7.90849 15.2004 9.20028 15.2004C10.4921 15.2004 10.9615 14.4004 12.0003 14.4004C13.039 14.4004 13.5085 15.2004 14.8003 15.2004C16.0921 15.2004 16.5615 14.4004 17.6003 14.4004C18.639 14.4004 19.1085 15.2004 20.4003 15.2004C21.6921 15.2004 22.1615 14.4004 23.2003 14.4004V16.8004C21.9817 16.7672 21.458 17.6004 20.4003 17.6004C19.3426 17.6004 18.8188 16.7672 17.6003 16.8004C16.3817 16.7672 15.858 17.6004 14.8003 17.6004C13.7426 17.6004 13.2188 16.7672 12.0003 16.8004C10.7817 16.7672 10.258 17.6004 9.20028 17.6004C8.14259 17.6004 7.61884 16.7672 6.40028 16.8004C5.18172 16.7672 4.65797 17.6004 3.60028 17.6004C2.54277 17.6004 2.01902 16.7675 0.80101 16.8004V14.4004ZM0.80101 17.6004C1.83923 17.6008 2.30885 18.4004 3.60028 18.4004C4.89207 18.4004 5.36151 17.6004 6.40028 17.6004C7.43905 17.6004 7.90849 18.4004 9.20028 18.4004C10.4921 18.4004 10.9615 17.6004 12.0003 17.6004C13.039 17.6004 13.5085 18.4004 14.8003 18.4004C16.0921 18.4004 16.5615 17.6004 17.6003 17.6004C18.639 17.6004 19.1085 18.4004 20.4003 18.4004C21.6921 18.4004 22.1615 17.6004 23.2003 17.6004V20.0004C21.9817 19.9672 21.458 20.8004 20.4003 20.8004C19.3426 20.8004 18.8188 19.9672 17.6003 20.0004C16.3817 19.9672 15.858 20.8004 14.8003 20.8004C13.7426 20.8004 13.2188 19.9672 12.0003 20.0004C10.7817 19.9672 10.258 20.8004 9.20028 20.8004C8.14259 20.8004 7.61884 19.9672 6.40028 20.0004C5.18172 19.9672 4.65797 20.8004 3.60028 20.8004C2.54277 20.8004 2.01902 19.9675 0.80101 20.0004V17.6004ZM0.80101 20.8004C1.83923 20.8008 2.30885 21.6004 3.60028 21.6004C4.89207 21.6004 5.36151 20.8004 6.40028 20.8004C7.43905 20.8004 7.90849 21.6004 9.20028 21.6004C10.4921 21.6004 10.9615 20.8004 12.0003 20.8004C13.039 20.8004 13.5085 21.6004 14.8003 21.6004C16.0921 21.6004 16.5615 20.8004 17.6003 20.8004C18.639 20.8004 19.1085 21.6004 20.4003 21.6004C21.6921 21.6004 22.1615 20.8004 23.2003 20.8004V22.7997C23.2003 23.0282 23.0303 23.2013 22.8019 23.2013L1.19915 23.2009C0.970574 23.2009 0.800754 23.0279 0.800754 22.7993L0.80101 20.8004Z" fill="#1C3346"/>
</svg>
