<svg width="32" height="32" viewBox="0 0 32 32" fill="none" xmlns="http://www.w3.org/2000/svg">
<path d="M22 30H17C15.1441 29.9979 13.3649 29.2597 12.0526 27.9474C10.7403 26.6351 10.0021 24.8559 10 23C10.0252 21.2279 10.7532 19.5384 12.024 18.303C11.372 18.1002 10.6928 17.998 10.01 18C5.043 18.047 4 24.551 4 30H2C2 18.49 6.345 16.034 9.99 16C11.5496 16.0213 13.083 16.4036 14.47 17.117C14.6247 17.1995 14.755 17.3213 14.8479 17.4701C14.9407 17.6189 14.9927 17.7894 14.9988 17.9647C15.0049 18.14 14.9648 18.3137 14.8825 18.4686C14.8002 18.6235 14.6786 18.754 14.53 18.847C13.5705 19.3724 12.8154 20.2052 12.3863 21.2115C11.9571 22.2178 11.8788 23.3391 12.1638 24.3953C12.4488 25.4515 13.0807 26.3812 13.9578 27.035C14.8349 27.6887 15.9064 28.0286 17 28H22V30Z" fill="#1C3346"/>
<path d="M18 24V22C19.5822 22 21.129 21.5308 22.4446 20.6518C23.7602 19.7727 24.7855 18.5233 25.391 17.0615C25.9965 15.5997 26.155 13.9911 25.8463 12.4393C25.5376 10.8874 24.7757 9.46197 23.6569 8.34315C22.538 7.22433 21.1126 6.4624 19.5607 6.15372C18.0089 5.84504 16.4003 6.00347 14.9385 6.60897C13.4767 7.21447 12.2273 8.23985 11.3482 9.55544C10.4692 10.871 10 12.4178 10 14H8C8 12.0222 8.58649 10.0888 9.6853 8.4443C10.7841 6.79981 12.3459 5.51809 14.1732 4.76121C16.0004 4.00433 18.0111 3.8063 19.9509 4.19215C21.8907 4.578 23.6725 5.53041 25.0711 6.92894C26.4696 8.32746 27.422 10.1093 27.8079 12.0491C28.1937 13.9889 27.9957 15.9996 27.2388 17.8268C26.4819 19.6541 25.2002 21.2159 23.5557 22.3147C21.9112 23.4135 19.9778 24 18 24Z" fill="#1C3346"/>
<path d="M18 9C18.5523 9 19 8.55228 19 8C19 7.44772 18.5523 7 18 7C17.4477 7 17 7.44772 17 8C17 8.55228 17.4477 9 18 9Z" fill="#1C3346"/>
<path d="M23 17.586L20.7 15.286C20.8954 14.8853 20.9979 14.4458 21 14C20.9992 13.2046 20.6829 12.442 20.1204 11.8796C19.558 11.3171 18.7954 11.0008 18 11C17.5545 11.002 17.1153 11.1046 16.715 11.3L14.415 9L13 10.414L15.3 12.714C15.1046 13.1147 15.0021 13.5542 15 14C15.0008 14.7954 15.3171 15.558 15.8796 16.1204C16.442 16.6829 17.2046 16.9992 18 17C18.4455 16.998 18.8847 16.8954 19.285 16.7L21.585 19L23 17.586ZM17 14C17 13.8022 17.0586 13.6089 17.1685 13.4444C17.2784 13.28 17.4346 13.1518 17.6173 13.0761C17.8 13.0004 18.0011 12.9806 18.1951 13.0192C18.3891 13.0578 18.5673 13.153 18.7071 13.2929C18.847 13.4327 18.9422 13.6109 18.9808 13.8049C19.0194 13.9989 18.9996 14.2 18.9239 14.3827C18.8482 14.5654 18.72 14.7216 18.5556 14.8315C18.3911 14.9414 18.1978 15 18 15C17.7348 15 17.4804 14.8946 17.2929 14.7071C17.1054 14.5196 17 14.2652 17 14Z" fill="#1C3346"/>
</svg>
