<svg width="15" height="11" viewBox="0 0 15 11" fill="none" xmlns="http://www.w3.org/2000/svg">
<path d="M13.6076 4.92111H13.2695L13.513 5.49145C13.6839 5.89033 13.8231 6.56713 13.8231 6.99463V10.0927C13.8231 10.5919 13.3701 11 12.8154 11C12.2612 11 11.8072 10.5919 11.8072 10.0927V9.59789C10.3551 9.77026 8.80725 9.86368 7.19925 9.86368C5.59233 9.86368 4.0441 9.77026 2.59182 9.59789V10.0927C2.59182 10.5919 2.1379 11 1.58367 11C1.02945 11 0.575531 10.5919 0.575531 10.0927V6.99463C0.575531 6.56713 0.714929 5.89033 0.885589 5.49145L1.12911 4.92111L0.792286 4.92101C0.356457 4.92101 0 4.60058 0 4.20834C0 3.8164 0.356486 3.49556 0.792286 3.49556H1.73929L2.42566 1.88883C2.59642 1.48926 3.10969 1.06687 3.56651 0.949255C3.56651 0.949255 4.75211 0.644592 7.19994 0.644592C9.64777 0.644592 10.8334 0.949255 10.8334 0.949255C11.2899 1.06688 11.8035 1.48926 11.9742 1.88883L12.6606 3.49556H13.6076C14.0437 3.49556 14.3999 3.8164 14.3999 4.20834C14.3999 4.60058 14.0434 4.92101 13.6076 4.92101L13.6076 4.92111ZM8.10158 2.74123C8.10158 3.18953 7.69835 3.55313 7.20001 3.55313C6.70212 3.55313 6.29843 3.18951 6.29843 2.74123C6.29843 2.29264 6.70201 1.92933 7.20001 1.92933C7.69843 1.92943 8.10158 2.29254 8.10158 2.74123ZM4.41729 2.11012C3.91941 2.11012 3.51518 2.47344 3.51518 2.92203C3.51518 3.37012 3.91921 3.73393 4.41729 3.73393C4.91572 3.73393 5.31941 3.3703 5.31941 2.92203C5.31929 2.47344 4.91583 2.11012 4.41729 2.11012ZM3.31172 6.67132C3.31172 6.27818 2.95749 5.95855 2.52021 5.95855C2.08249 5.95855 1.72792 6.27808 1.72792 6.67132C1.72792 7.06457 2.08249 7.3841 2.52021 7.3841C2.95749 7.384 3.31172 7.06437 3.31172 6.67132ZM11.1966 4.62925C11.3532 4.60424 11.5099 4.57913 11.6659 4.5512C11.8227 4.52237 11.9064 4.39782 11.8525 4.27326C11.586 3.6528 11.3179 2.94928 11.05 2.18356C10.9957 2.02907 10.8217 1.87941 10.6644 1.85712C8.36801 1.54271 6.03244 1.54271 3.7353 1.85712C3.57804 1.87931 3.40461 2.02908 3.3497 2.18356C3.08184 2.94977 2.81387 3.65318 2.54724 4.27326C2.49289 4.39781 2.57704 4.52166 2.73385 4.55079C2.88987 4.57912 3.04613 4.60423 3.20316 4.62924C3.27247 4.31283 3.58073 3.9699 3.89825 3.92583C4.24333 3.87771 4.59122 3.87771 4.93676 3.92583C5.25642 3.96992 5.56779 4.31866 5.63385 4.63659C5.64969 4.72469 5.66666 4.81127 5.68295 4.89785C5.75483 4.90277 5.82637 4.90679 5.89813 4.9099C5.92704 4.75984 5.95527 4.60807 5.98362 4.456C6.04969 4.13809 6.36108 3.78902 6.68028 3.74453C7.02537 3.69712 7.37425 3.69712 7.71934 3.74453C8.03931 3.78903 8.35037 4.13809 8.41599 4.456C8.44479 4.60807 8.47347 4.75945 8.50227 4.9099C8.57336 4.90669 8.64535 4.90257 8.71711 4.89785C8.7334 4.81127 8.74992 4.72478 8.76622 4.63659C8.83229 4.31869 9.14322 3.96982 9.46322 3.92583C9.80853 3.87771 10.1568 3.87771 10.5015 3.92583C10.819 3.96982 11.1275 4.31285 11.1966 4.62924L11.1966 4.62925ZM12.6718 6.67132C12.6718 6.27738 12.3171 5.95855 11.8798 5.95855C11.4425 5.95855 11.0879 6.27736 11.0879 6.67132C11.0879 7.06488 11.4425 7.3841 11.8798 7.3841C12.317 7.3841 12.6718 7.06488 12.6718 6.67132ZM9.98263 2.11012C9.48421 2.11012 9.08052 2.47344 9.08052 2.92203C9.08052 3.37012 9.48409 3.73393 9.98263 3.73393C10.4805 3.73393 10.8847 3.3703 10.8847 2.92203C10.8851 2.47344 10.4811 2.11012 9.98263 2.11012Z" fill="#1C3346"/>
</svg>
